<svg version="1.1" viewBox="0.0 0.0 128.03674540682414 100.0" fill="none" stroke="none" stroke-linecap="square" stroke-miterlimit="10" xmlns:xlink="http://www.w3.org/1999/xlink" xmlns="http://www.w3.org/2000/svg"><clipPath id="p.0"><path d="m0 0l128.03674 0l0 100.0l-128.03674 0l0 -100.0z" clip-rule="nonzero"/></clipPath><g clip-path="url(#p.0)"><path fill="#000000" fill-opacity="0.0" d="m0 0l128.03674 0l0 100.0l-128.03674 0z" fill-rule="evenodd"/><path fill="#cfe2f3" d="m3.265092 36.97638l113.826775 0l0 45.85827l-113.826775 0z" fill-rule="evenodd"/><path stroke="#000000" stroke-width="1.0" stroke-linejoin="round" stroke-linecap="butt" d="m3.265092 36.97638l113.826775 0l0 45.85827l-113.826775 0z" fill-rule="evenodd"/><path fill="#000000" d="m43.61337 66.82551l-7.46875 0l0 -1.46875l3.0625 0l0 -8.703121l-2.859375 1.546875l-0.578125 -1.34375l3.78125 -1.984375l1.40625 0l0 10.484371l2.65625 0l0 1.46875zm20.311462 -3.8124962q0 0.890625 -0.390625 1.6249962q-0.375 0.71875 -1.046875 1.25q-0.65625 0.515625 -1.578125 0.8125q-0.90625 0.28125 -1.953125 0.28125q-0.265625 0 -0.578125 -0.015625q-0.296875 0 -0.609375 -0.03125q-0.296875 -0.015625 -0.59375 -0.046875q-0.28125 -0.03125 -0.5 -0.0625l0 -1.4375q0.484375 0.109375 1.109375 0.171875q0.640625 0.046875 1.296875 0.046875q0.71875 0 1.296875 -0.171875q0.59375 -0.171875 1.0 -0.484375q0.40625 -0.328125 0.625 -0.78125q0.21875 -0.4687462 0.21875 -1.0468712q0 -1.109375 -0.796875 -1.609375q-0.796875 -0.515625 -2.28125 -0.515625l-2.265625 0l0 -6.078125l6.421875 0l0 1.390625l-4.921875 0l0 3.34375l1.03125 0q0.859375 0 1.671875 0.15625q0.8125 0.140625 1.4375 0.53125q0.640625 0.390625 1.015625 1.046875q0.390625 0.640625 0.390625 1.625zm21.342716 3.8124962l-2.109375 0l-2.46875 -3.4843712l-2.4375 3.4843712l-2.046875 0l3.546875 -4.593746l-3.390625 -4.546875l2.03125 0l2.40625 3.515625l2.359375 -3.515625l1.96875 0l-3.4375 4.578125l3.578125 4.562496z" fill-rule="nonzero"/><path fill="#000000" fill-opacity="0.0" d="m60.17848 2.8346457l0 34.141735" fill-rule="evenodd"/><path stroke="#000000" stroke-width="2.0" stroke-linejoin="round" stroke-linecap="butt" d="m60.17848 2.8346457l0 34.141735" fill-rule="evenodd"/></g></svg>