<svg version="1.1" viewBox="0.0 0.0 220.75853018372703 168.92125984251967" fill="none" stroke="none" stroke-linecap="square" stroke-miterlimit="10" xmlns:xlink="http://www.w3.org/1999/xlink" xmlns="http://www.w3.org/2000/svg"><clipPath id="p.0"><path d="m0 0l220.75853 0l0 168.92126l-220.75853 0l0 -168.92126z" clip-rule="nonzero"/></clipPath><g clip-path="url(#p.0)"><path fill="#000000" fill-opacity="0.0" d="m0 0l220.75853 0l0 168.92126l-220.75853 0z" fill-rule="evenodd"/><path fill="#000000" d="m83.75853 58.8084l0 0c0 -12.66341 10.350334 -22.929134 23.11811 -22.929134l0 0c6.131302 0 12.011482 2.415741 16.34697 6.71579c4.3354874 4.300045 6.771141 10.13216 6.771141 16.213345l0 0c0 12.66341 -10.350334 22.929134 -23.11811 22.929134l0 0c-12.7677765 0 -23.11811 -10.265724 -23.11811 -22.929134z" fill-rule="evenodd"/><path stroke="#000000" stroke-width="1.0" stroke-linejoin="round" stroke-linecap="butt" d="m83.75853 58.8084l0 0c0 -12.66341 10.350334 -22.929134 23.11811 -22.929134l0 0c6.131302 0 12.011482 2.415741 16.34697 6.71579c4.3354874 4.300045 6.771141 10.13216 6.771141 16.213345l0 0c0 12.66341 -10.350334 22.929134 -23.11811 22.929134l0 0c-12.7677765 0 -23.11811 -10.265724 -23.11811 -22.929134z" fill-rule="evenodd"/><path fill="#ffffff" d="m108.64191 65.7284l-1.640625 0l0 -10.453129q-0.59375 0.5625 -1.5625 1.140625q-0.953125 0.5625 -1.71875 0.84375l0 -1.59375q1.375 -0.640625 2.40625 -1.5625q1.03125 -0.921875 1.453125 -1.78125l1.0625 0l0 13.406254z" fill-rule="nonzero"/><path fill="#ff0000" d="m163.79002 140.81364l0 0c0 -12.663406 10.350327 -22.92913 23.118118 -22.92913l0 0c6.131302 0 12.011475 2.415741 16.34697 6.71579c4.3354797 4.300041 6.7711334 10.132164 6.7711334 16.21334l0 0c0 12.663422 -10.350327 22.929138 -23.118103 22.929138l0 0c-12.767792 0 -23.118118 -10.265717 -23.118118 -22.929138z" fill-rule="evenodd"/><path stroke="#000000" stroke-width="1.0" stroke-linejoin="round" stroke-linecap="butt" d="m163.79002 140.81364l0 0c0 -12.663406 10.350327 -22.92913 23.118118 -22.92913l0 0c6.131302 0 12.011475 2.415741 16.34697 6.71579c4.3354797 4.300041 6.7711334 10.132164 6.7711334 16.21334l0 0c0 12.663422 -10.350327 22.929138 -23.118103 22.929138l0 0c-12.767792 0 -23.118118 -10.265717 -23.118118 -22.929138z" fill-rule="evenodd"/><path fill="#ffffff" d="m190.6545 143.92114q0 0.890625 -0.390625 1.625q-0.375 0.71875 -1.046875 1.25q-0.65625 0.515625 -1.578125 0.8125q-0.90625 0.28125 -1.953125 0.28125q-0.265625 0 -0.578125 -0.015625q-0.296875 0 -0.609375 -0.03125q-0.296875 -0.015625 -0.59375 -0.046875q-0.28125 -0.03125 -0.5 -0.0625l0 -1.4375q0.484375 0.109375 1.109375 0.171875q0.640625 0.046875 1.296875 0.046875q0.71875 0 1.296875 -0.171875q0.59375 -0.171875 1.0 -0.484375q0.40625 -0.328125 0.625 -0.78125q0.21875 -0.46875 0.21875 -1.046875q0 -1.109375 -0.796875 -1.609375q-0.796875 -0.515625 -2.28125 -0.515625l-2.265625 0l0 -6.078125l6.421875 0l0 1.390625l-4.921875 0l0 3.34375l1.03125 0q0.859375 0 1.671875 0.15625q0.8125 0.140625 1.4375 0.53125q0.640625 0.390625 1.015625 1.046875q0.390625 0.640625 0.390625 1.625z" fill-rule="nonzero"/><path fill="#ff0000" d="m3.727034 140.81364l0 0c0 -12.663406 10.35033 -22.92913 23.11811 -22.92913l0 0c6.131304 0 12.011484 2.415741 16.346972 6.71579c4.3354874 4.300041 6.771137 10.132164 6.771137 16.21334l0 0c0 12.663422 -10.35033 22.929138 -23.118109 22.929138l0 0c-12.767779 0 -23.11811 -10.265717 -23.11811 -22.929138z" fill-rule="evenodd"/><path stroke="#000000" stroke-width="1.0" stroke-linejoin="round" stroke-linecap="butt" d="m3.727034 140.81364l0 0c0 -12.663406 10.35033 -22.92913 23.11811 -22.92913l0 0c6.131304 0 12.011484 2.415741 16.346972 6.71579c4.3354874 4.300041 6.771137 10.132164 6.771137 16.21334l0 0c0 12.663422 -10.35033 22.929138 -23.118109 22.929138l0 0c-12.767779 0 -23.11811 -10.265717 -23.11811 -22.929138z" fill-rule="evenodd"/><path fill="#ffffff" d="m31.419624 147.73364l-2.109375 0l-2.46875 -3.484375l-2.437502 3.484375l-2.046875 0l3.546875 -4.59375l-3.390625 -4.546875l2.03125 0l2.406252 3.515625l2.359375 -3.515625l1.96875 0l-3.4375 4.578125l3.578125 4.5625z" fill-rule="nonzero"/><path fill="#000000" fill-opacity="0.0" d="m106.87664 3.816273l0 32.062992" fill-rule="evenodd"/><path stroke="#000000" stroke-width="2.0" stroke-linejoin="round" stroke-linecap="butt" d="m106.87664 3.816273l0 32.062992" fill-rule="evenodd"/><path fill="#000000" fill-opacity="0.0" d="m26.845144 117.884514l80.031494 -36.15748" fill-rule="evenodd"/><path stroke="#000000" stroke-width="2.0" stroke-linejoin="round" stroke-linecap="butt" d="m26.845144 117.884514l80.031494 -36.15748" fill-rule="evenodd"/><path fill="#000000" fill-opacity="0.0" d="m186.90814 117.884514l-80.0315 -36.15748" fill-rule="evenodd"/><path stroke="#000000" stroke-width="2.0" stroke-linejoin="round" stroke-linecap="butt" d="m186.90814 117.884514l-80.0315 -36.15748" fill-rule="evenodd"/></g></svg>