<svg version="1.1" viewBox="0.0 0.0 180.9475065616798 251.35958005249344" fill="none" stroke="none" stroke-linecap="square" stroke-miterlimit="10" xmlns:xlink="http://www.w3.org/1999/xlink" xmlns="http://www.w3.org/2000/svg"><clipPath id="p.0"><path d="m0 0l180.94751 0l0 251.35957l-180.94751 0l0 -251.35957z" clip-rule="nonzero"/></clipPath><g clip-path="url(#p.0)"><path fill="#000000" fill-opacity="0.0" d="m0 0l180.94751 0l0 251.35957l-180.94751 0z" fill-rule="evenodd"/><path fill="#000000" d="m87.08924 59.89501l0 0c0 -12.66341 10.350327 -22.929134 23.11811 -22.929134l0 0c6.131302 0 12.011482 2.415741 16.34697 6.71579c4.3354797 4.300045 6.7711334 10.13216 6.7711334 16.213345l0 0c0 12.663414 -10.350327 22.929138 -23.118103 22.929138l0 0c-12.767784 0 -23.11811 -10.265724 -23.11811 -22.929138z" fill-rule="evenodd"/><path stroke="#000000" stroke-width="1.0" stroke-linejoin="round" stroke-linecap="butt" d="m87.08924 59.89501l0 0c0 -12.66341 10.350327 -22.929134 23.11811 -22.929134l0 0c6.131302 0 12.011482 2.415741 16.34697 6.71579c4.3354797 4.300045 6.7711334 10.13216 6.7711334 16.213345l0 0c0 12.663414 -10.350327 22.929138 -23.118103 22.929138l0 0c-12.767784 0 -23.11811 -10.265724 -23.11811 -22.929138z" fill-rule="evenodd"/><path fill="#ffffff" d="m105.80074 63.31501l1.71875 -0.140625q0.1875 1.25 0.875 1.890625q0.703125 0.625 1.6875 0.625q1.1875 0 2.0 -0.890625q0.828125 -0.890625 0.828125 -2.359375q0 -1.40625 -0.796875 -2.21875q-0.78125 -0.8125 -2.0625 -0.8125q-0.78125 0 -1.421875 0.359375q-0.640625 0.359375 -1.0 0.9375l-1.546875 -0.203125l1.296875 -6.859375l6.640625 0l0 1.5625l-5.328125 0l-0.71875 3.59375q1.203125 -0.84375 2.515625 -0.84375q1.75 0 2.953125 1.21875q1.203125 1.203125 1.203125 3.109375q0 1.8125 -1.046875 3.140625q-1.296875 1.625 -3.515625 1.625q-1.8125 0 -2.96875 -1.015625q-1.15625 -1.03125 -1.3125 -2.71875z" fill-rule="nonzero"/><path fill="#ff0000" d="m7.0577426 141.90027l0 0c0 -12.663422 10.35033 -22.929138 23.11811 -22.929138l0 0c6.131302 0 12.011486 2.415741 16.346973 6.71579c4.3354836 4.300049 6.771137 10.132156 6.771137 16.213348l0 0c0 12.663406 -10.35033 22.929123 -23.11811 22.929123l0 0c-12.76778 0 -23.11811 -10.265717 -23.11811 -22.929123z" fill-rule="evenodd"/><path stroke="#000000" stroke-width="1.0" stroke-linejoin="round" stroke-linecap="butt" d="m7.0577426 141.90027l0 0c0 -12.663422 10.35033 -22.929138 23.11811 -22.929138l0 0c6.131302 0 12.011486 2.415741 16.346973 6.71579c4.3354836 4.300049 6.771137 10.132156 6.771137 16.213348l0 0c0 12.663406 -10.35033 22.929123 -23.11811 22.929123l0 0c-12.76778 0 -23.11811 -10.265717 -23.11811 -22.929123z" fill-rule="evenodd"/><path fill="#ffffff" d="m34.12533 148.82027l-7.46875 0l0 -1.46875l3.0625 0l0 -8.703125l-2.859375 1.546875l-0.578125 -1.34375l3.78125 -1.984375l1.40625 0l0 10.484375l2.65625 0l0 1.46875z" fill-rule="nonzero"/><path fill="#000000" fill-opacity="0.0" d="m30.175854 118.97113l80.031494 -36.15748" fill-rule="evenodd"/><path stroke="#000000" stroke-width="2.0" stroke-linejoin="round" stroke-linecap="butt" d="m30.175854 118.97113l80.031494 -36.15748" fill-rule="evenodd"/><path fill="#ff0000" d="m87.08924 223.90552l0 0c0 -12.663422 10.350327 -22.929138 23.11811 -22.929138l0 0c6.131302 0 12.011482 2.415741 16.34697 6.71579c4.3354797 4.300049 6.7711334 10.132156 6.7711334 16.213348l0 0c0 12.663406 -10.350327 22.929123 -23.118103 22.929123l0 0c-12.767784 0 -23.11811 -10.265717 -23.11811 -22.929123z" fill-rule="evenodd"/><path stroke="#000000" stroke-width="1.0" stroke-linejoin="round" stroke-linecap="butt" d="m87.08924 223.90552l0 0c0 -12.663422 10.350327 -22.929138 23.11811 -22.929138l0 0c6.131302 0 12.011482 2.415741 16.34697 6.71579c4.3354797 4.300049 6.7711334 10.132156 6.7711334 16.213348l0 0c0 12.663406 -10.350327 22.929123 -23.118103 22.929123l0 0c-12.767784 0 -23.11811 -10.265717 -23.11811 -22.929123z" fill-rule="evenodd"/><path fill="#ffffff" d="m114.78183 230.82552l-2.109375 0l-2.46875 -3.484375l-2.4375 3.484375l-2.046875 0l3.546875 -4.59375l-3.390625 -4.546875l2.03125 0l2.40625 3.515625l2.359375 -3.515625l1.96875 0l-3.4375 4.578125l3.578125 4.5625z" fill-rule="nonzero"/><path fill="#000000" fill-opacity="0.0" d="m110.20735 4.9028873l0 32.06299" fill-rule="evenodd"/><path stroke="#000000" stroke-width="2.0" stroke-linejoin="round" stroke-linecap="butt" d="m110.20735 4.9028873l0 32.06299" fill-rule="evenodd"/><path fill="#000000" fill-opacity="0.0" d="m110.20735 200.97638l-80.031494 -36.157486" fill-rule="evenodd"/><path stroke="#000000" stroke-width="2.0" stroke-linejoin="round" stroke-linecap="butt" d="m110.20735 200.97638l-80.031494 -36.157486" fill-rule="evenodd"/></g></svg>