<svg version="1.1" viewBox="0.0 0.0 220.75853018372703 168.92125984251967" fill="none" stroke="none" stroke-linecap="square" stroke-miterlimit="10" xmlns:xlink="http://www.w3.org/1999/xlink" xmlns="http://www.w3.org/2000/svg"><clipPath id="p.0"><path d="m0 0l220.75853 0l0 168.92126l-220.75853 0l0 -168.92126z" clip-rule="nonzero"/></clipPath><g clip-path="url(#p.0)"><path fill="#000000" fill-opacity="0.0" d="m0 0l220.75853 0l0 168.92126l-220.75853 0z" fill-rule="evenodd"/><path fill="#ff0000" d="m83.75853 58.8084l0 0c0 -12.66341 10.350334 -22.929134 23.11811 -22.929134l0 0c6.131302 0 12.011482 2.415741 16.34697 6.71579c4.3354874 4.300045 6.771141 10.13216 6.771141 16.213345l0 0c0 12.66341 -10.350334 22.929134 -23.11811 22.929134l0 0c-12.7677765 0 -23.11811 -10.265724 -23.11811 -22.929134z" fill-rule="evenodd"/><path stroke="#000000" stroke-width="1.0" stroke-linejoin="round" stroke-linecap="butt" d="m83.75853 58.8084l0 0c0 -12.66341 10.350334 -22.929134 23.11811 -22.929134l0 0c6.131302 0 12.011482 2.415741 16.34697 6.71579c4.3354874 4.300045 6.771141 10.13216 6.771141 16.213345l0 0c0 12.66341 -10.350334 22.929134 -23.11811 22.929134l0 0c-12.7677765 0 -23.11811 -10.265724 -23.11811 -22.929134z" fill-rule="evenodd"/><path fill="#ffffff" d="m102.47003 62.228397l1.71875 -0.140625q0.1875 1.25 0.875 1.890625q0.703125 0.6250038 1.6875 0.6250038q1.1875 0 2.0 -0.8906288q0.828125 -0.890625 0.828125 -2.359375q0 -1.40625 -0.796875 -2.21875q-0.78125 -0.8125 -2.0625 -0.8125q-0.78125 0 -1.421875 0.359375q-0.640625 0.359375 -1.0 0.9375l-1.546875 -0.203125l1.296875 -6.859375l6.640625 0l0 1.5625l-5.328125 0l-0.71875 3.59375q1.203125 -0.84375 2.515625 -0.84375q1.75 0 2.953125 1.21875q1.203125 1.203125 1.203125 3.109375q0 1.8125 -1.046875 3.1406288q-1.296875 1.625 -3.515625 1.625q-1.8125 0 -2.96875 -1.015625q-1.15625 -1.0312538 -1.3125 -2.7187538z" fill-rule="nonzero"/><path fill="#000000" d="m163.79002 140.81364l0 0c0 -12.663406 10.350327 -22.92913 23.118118 -22.92913l0 0c6.131302 0 12.011475 2.415741 16.34697 6.71579c4.3354797 4.300041 6.7711334 10.132164 6.7711334 16.21334l0 0c0 12.663422 -10.350327 22.929138 -23.118103 22.929138l0 0c-12.767792 0 -23.118118 -10.265717 -23.118118 -22.929138z" fill-rule="evenodd"/><path stroke="#000000" stroke-width="1.0" stroke-linejoin="round" stroke-linecap="butt" d="m163.79002 140.81364l0 0c0 -12.663406 10.350327 -22.92913 23.118118 -22.92913l0 0c6.131302 0 12.011475 2.415741 16.34697 6.71579c4.3354797 4.300041 6.7711334 10.132164 6.7711334 16.21334l0 0c0 12.663422 -10.350327 22.929138 -23.118103 22.929138l0 0c-12.767792 0 -23.118118 -10.265717 -23.118118 -22.929138z" fill-rule="evenodd"/><path fill="#ffffff" d="m191.48262 147.73364l-2.109375 0l-2.46875 -3.484375l-2.4375 3.484375l-2.046875 0l3.546875 -4.59375l-3.390625 -4.546875l2.03125 0l2.40625 3.515625l2.359375 -3.515625l1.96875 0l-3.4375 4.578125l3.578125 4.5625z" fill-rule="nonzero"/><path fill="#000000" d="m3.727034 140.81364l0 0c0 -12.663406 10.35033 -22.92913 23.11811 -22.92913l0 0c6.131304 0 12.011484 2.415741 16.346972 6.71579c4.3354874 4.300041 6.771137 10.132164 6.771137 16.21334l0 0c0 12.663422 -10.35033 22.929138 -23.118109 22.929138l0 0c-12.767779 0 -23.11811 -10.265717 -23.11811 -22.929138z" fill-rule="evenodd"/><path stroke="#000000" stroke-width="1.0" stroke-linejoin="round" stroke-linecap="butt" d="m3.727034 140.81364l0 0c0 -12.663406 10.35033 -22.92913 23.11811 -22.92913l0 0c6.131304 0 12.011484 2.415741 16.346972 6.71579c4.3354874 4.300041 6.771137 10.132164 6.771137 16.21334l0 0c0 12.663422 -10.35033 22.929138 -23.118109 22.929138l0 0c-12.767779 0 -23.11811 -10.265717 -23.11811 -22.929138z" fill-rule="evenodd"/><path fill="#ffffff" d="m28.610413 147.73364l-1.640625 0l0 -10.453125q-0.5937519 0.5625 -1.5625019 1.140625q-0.953125 0.5625 -1.71875 0.84375l0 -1.59375q1.375 -0.640625 2.40625 -1.5625q1.0312519 -0.921875 1.4531269 -1.78125l1.0625 0l0 13.40625z" fill-rule="nonzero"/><path fill="#000000" fill-opacity="0.0" d="m106.87664 3.816273l0 32.062992" fill-rule="evenodd"/><path stroke="#000000" stroke-width="2.0" stroke-linejoin="round" stroke-linecap="butt" d="m106.87664 3.816273l0 32.062992" fill-rule="evenodd"/><path fill="#000000" fill-opacity="0.0" d="m26.845144 117.884514l80.031494 -36.15748" fill-rule="evenodd"/><path stroke="#000000" stroke-width="2.0" stroke-linejoin="round" stroke-linecap="butt" d="m26.845144 117.884514l80.031494 -36.15748" fill-rule="evenodd"/><path fill="#000000" fill-opacity="0.0" d="m186.90814 117.884514l-80.0315 -36.15748" fill-rule="evenodd"/><path stroke="#000000" stroke-width="2.0" stroke-linejoin="round" stroke-linecap="butt" d="m186.90814 117.884514l-80.0315 -36.15748" fill-rule="evenodd"/></g></svg>