<svg version="1.1" viewBox="0.0 0.0 268.76115485564304 171.8215223097113" fill="none" stroke="none" stroke-linecap="square" stroke-miterlimit="10" xmlns:xlink="http://www.w3.org/1999/xlink" xmlns="http://www.w3.org/2000/svg"><clipPath id="p.0"><path d="m0 0l268.76117 0l0 171.82152l-268.76117 0l0 -171.82152z" clip-rule="nonzero"/></clipPath><g clip-path="url(#p.0)"><path fill="#000000" fill-opacity="0.0" d="m0 0l268.76117 0l0 171.82152l-268.76117 0z" fill-rule="evenodd"/><path fill="#cfe2f3" d="m3.230971 120.20735l46.236217 0l0 45.85826l-46.236217 0z" fill-rule="evenodd"/><path stroke="#000000" stroke-width="1.0" stroke-linejoin="round" stroke-linecap="butt" d="m3.230971 120.20735l46.236217 0l0 45.85826l-46.236217 0z" fill-rule="evenodd"/><path fill="#000000" d="m30.29856 150.05649l-7.46875 0l0 -1.46875l3.0625 0l0 -8.703125l-2.859375 1.546875l-0.578125 -1.34375l3.78125 -1.984375l1.40625 0l0 10.484375l2.65625 0l0 1.46875z" fill-rule="nonzero"/><path fill="#cfe2f3" d="m98.06562 120.20735l46.236214 0l0 45.85826l-46.236214 0z" fill-rule="evenodd"/><path stroke="#000000" stroke-width="1.0" stroke-linejoin="round" stroke-linecap="butt" d="m98.06562 120.20735l46.236214 0l0 45.85826l-46.236214 0z" fill-rule="evenodd"/><path fill="#000000" d="m125.75821 150.05649l-2.109375 0l-2.46875 -3.484375l-2.4375 3.484375l-2.046875 0l3.546875 -4.59375l-3.390625 -4.546875l2.03125 0l2.40625 3.515625l2.359375 -3.515625l1.96875 0l-3.4375 4.578125l3.578125 4.5625z" fill-rule="nonzero"/><path fill="#cfe2f3" d="m174.27034 120.20735l88.220474 0l0 45.85826l-88.220474 0z" fill-rule="evenodd"/><path stroke="#000000" stroke-width="1.0" stroke-linejoin="round" stroke-linecap="butt" d="m174.27034 120.20735l88.220474 0l0 45.85826l-88.220474 0z" fill-rule="evenodd"/><path fill="#000000" d="m190.3583 150.67085q-3.0 -2.78125 -3.0 -6.140625q0 -0.796875 0.15625 -1.578125q0.15625 -0.78125 0.515625 -1.5625q0.359375 -0.796875 0.9375 -1.578125q0.578125 -0.796875 1.421875 -1.5625l0.65625 0.671875q-2.53125 2.484375 -2.53125 5.515625q0 1.515625 0.640625 2.90625q0.640625 1.390625 1.890625 2.625l-0.6875 0.703125zm3.4216156 -9.265625l1.0 0l0.046875 1.046875q0.28125 -0.328125 0.546875 -0.546875q0.28125 -0.234375 0.53125 -0.375q0.25 -0.140625 0.515625 -0.1875q0.28125 -0.0625 0.5625 -0.0625q1.015625 0 1.53125 0.609375q0.515625 0.59375 0.515625 1.78125l0 4.265625l-1.140625 0l0 -4.171875q0 -0.765625 -0.28125 -1.125q-0.28125 -0.375 -0.859375 -0.375q-0.203125 0 -0.40625 0.0625q-0.1875 0.0625 -0.40625 0.21875q-0.21875 0.140625 -0.46875 0.40625q-0.25 0.265625 -0.5625 0.65625l0 4.328125l-1.125 0l0 -6.53125zm12.843491 2.921875q0 0.234375 -0.015625 0.40625q0 0.15625 -0.015625 0.296875l-4.578125 0q0 1.0 0.546875 1.546875q0.5625 0.53125 1.625 0.53125q0.28125 0 0.5625 -0.015625q0.296875 -0.03125 0.5625 -0.0625q0.265625 -0.046875 0.5 -0.09375q0.25 -0.046875 0.453125 -0.109375l0 0.9375q-0.453125 0.125 -1.046875 0.203125q-0.578125 0.078125 -1.203125 0.078125q-0.828125 0 -1.4375 -0.21875q-0.609375 -0.234375 -1.0 -0.65625q-0.390625 -0.4375 -0.578125 -1.0625q-0.171875 -0.625 -0.171875 -1.421875q0 -0.6875 0.1875 -1.296875q0.203125 -0.625 0.578125 -1.09375q0.390625 -0.46875 0.9375 -0.734375q0.5625 -0.28125 1.265625 -0.28125q0.671875 0 1.203125 0.21875q0.53125 0.21875 0.890625 0.609375q0.359375 0.390625 0.546875 0.953125q0.1875 0.5625 0.1875 1.265625zm-1.1875 -0.171875q0.03125 -0.421875 -0.078125 -0.78125q-0.109375 -0.375 -0.328125 -0.625q-0.21875 -0.265625 -0.546875 -0.40625q-0.3125 -0.15625 -0.75 -0.15625q-0.359375 0 -0.671875 0.15625q-0.3125 0.140625 -0.53125 0.40625q-0.21875 0.25 -0.359375 0.625q-0.125 0.359375 -0.15625 0.78125l3.421875 0zm8.577866 0.390625q0 0.875 -0.25 1.53125q-0.234375 0.65625 -0.671875 1.09375q-0.421875 0.421875 -1.015625 0.640625q-0.578125 0.203125 -1.265625 0.203125q-0.3125 0 -0.625 -0.03125q-0.296875 -0.03125 -0.625 -0.109375l0 2.734375l-1.125 0l0 -9.203125l1.0 0l0.078125 1.09375q0.484375 -0.671875 1.03125 -0.9375q0.5625 -0.28125 1.203125 -0.28125q0.5625 0 0.984375 0.234375q0.421875 0.234375 0.703125 0.671875q0.296875 0.421875 0.4375 1.03125q0.140625 0.59375 0.140625 1.328125zm-1.15625 0.0625q0 -0.515625 -0.078125 -0.9375q-0.078125 -0.4375 -0.25 -0.734375q-0.15625 -0.3125 -0.40625 -0.484375q-0.25 -0.171875 -0.609375 -0.171875q-0.203125 0 -0.4375 0.0625q-0.21875 0.0625 -0.453125 0.234375q-0.234375 0.15625 -0.5 0.421875q-0.265625 0.265625 -0.5625 0.65625l0 3.15625q0.3125 0.140625 0.65625 0.21875q0.34375 0.0625 0.671875 0.0625q0.921875 0 1.4375 -0.609375q0.53125 -0.625 0.53125 -1.875zm8.155991 3.328125l-1.140625 0l0 -4.171875q0 -0.75 -0.28125 -1.125q-0.28125 -0.375 -0.8125 -0.375q-0.21875 0 -0.421875 0.0625q-0.203125 0.0625 -0.421875 0.21875q-0.203125 0.140625 -0.46875 0.40625q-0.25 0.265625 -0.578125 0.65625l0 4.328125l-1.125 0l0 -9.203125l1.125 0l0 2.671875l-0.03125 1.03125q0.265625 -0.328125 0.515625 -0.546875q0.265625 -0.21875 0.515625 -0.34375q0.25 -0.140625 0.515625 -0.203125q0.28125 -0.0625 0.5625 -0.0625q0.96875 0 1.5 0.609375q0.546875 0.59375 0.546875 1.78125l0 4.265625zm7.5934906 -3.609375q0 0.234375 -0.015625 0.40625q0 0.15625 -0.015625 0.296875l-4.578125 0q0 1.0 0.546875 1.546875q0.5625 0.53125 1.625 0.53125q0.28125 0 0.5625 -0.015625q0.296875 -0.03125 0.5625 -0.0625q0.265625 -0.046875 0.5 -0.09375q0.25 -0.046875 0.453125 -0.109375l0 0.9375q-0.453125 0.125 -1.046875 0.203125q-0.578125 0.078125 -1.203125 0.078125q-0.828125 0 -1.4375 -0.21875q-0.609375 -0.234375 -1.0 -0.65625q-0.390625 -0.4375 -0.578125 -1.0625q-0.171875 -0.625 -0.171875 -1.421875q0 -0.6875 0.1875 -1.296875q0.203125 -0.625 0.578125 -1.09375q0.390625 -0.46875 0.9375 -0.734375q0.5625 -0.28125 1.265625 -0.28125q0.671875 0 1.203125 0.21875q0.53125 0.21875 0.890625 0.609375q0.359375 0.390625 0.546875 0.953125q0.1875 0.5625 0.1875 1.265625zm-1.1875 -0.171875q0.03125 -0.421875 -0.078125 -0.78125q-0.109375 -0.375 -0.328125 -0.625q-0.21875 -0.265625 -0.546875 -0.40625q-0.3125 -0.15625 -0.75 -0.15625q-0.359375 0 -0.671875 0.15625q-0.3125 0.140625 -0.53125 0.40625q-0.21875 0.25 -0.359375 0.625q-0.125 0.359375 -0.15625 0.78125l3.421875 0zm9.046616 -2.75l-0.953125 6.53125l-1.375 0l-0.9375 -2.734375l-0.1875 -0.65625l-0.21875 0.703125l-0.90625 2.6875l-1.328125 0l-0.953125 -6.53125l1.109375 0l0.546875 4.4375l0.125 0.984375l0.28125 -0.859375l0.9375 -2.9375l0.8125 0l1.03125 2.890625l0.296875 0.875l0.09375 -0.921875l0.5 -4.46875l1.125 0zm6.4528656 4.75q0 0.34375 -0.125 0.625q-0.109375 0.265625 -0.3125 0.484375q-0.203125 0.203125 -0.46875 0.359375q-0.265625 0.140625 -0.578125 0.25q-0.296875 0.09375 -0.625 0.125q-0.3125 0.046875 -0.609375 0.046875q-0.671875 0 -1.234375 -0.0625q-0.546875 -0.046875 -1.078125 -0.171875l0 -1.046875q0.5625 0.15625 1.125 0.25q0.578125 0.078125 1.140625 0.078125q0.8125 0 1.203125 -0.21875q0.390625 -0.21875 0.390625 -0.625q0 -0.1875 -0.0625 -0.3125q-0.0625 -0.140625 -0.234375 -0.265625q-0.15625 -0.140625 -0.5 -0.265625q-0.34375 -0.140625 -0.9375 -0.3125q-0.4375 -0.140625 -0.8125 -0.296875q-0.375 -0.171875 -0.65625 -0.390625q-0.265625 -0.234375 -0.421875 -0.53125q-0.15625 -0.3125 -0.15625 -0.734375q0 -0.265625 0.125 -0.59375q0.125 -0.328125 0.4375 -0.609375q0.3125 -0.28125 0.828125 -0.46875q0.515625 -0.1875 1.296875 -0.1875q0.390625 0 0.859375 0.046875q0.46875 0.046875 0.96875 0.140625l0 1.015625q-0.53125 -0.125 -1.015625 -0.1875q-0.46875 -0.0625 -0.828125 -0.0625q-0.421875 0 -0.71875 0.0625q-0.28125 0.0625 -0.46875 0.1875q-0.171875 0.109375 -0.25 0.265625q-0.078125 0.140625 -0.078125 0.3125q0 0.1875 0.0625 0.328125q0.078125 0.140625 0.265625 0.28125q0.1875 0.125 0.515625 0.265625q0.328125 0.125 0.859375 0.28125q0.59375 0.171875 0.984375 0.359375q0.390625 0.1875 0.640625 0.421875q0.25 0.21875 0.359375 0.515625q0.109375 0.28125 0.109375 0.640625zm3.4841156 -7.90625q3.0 2.78125 3.0 6.1875q0 0.6875 -0.140625 1.453125q-0.140625 0.75 -0.484375 1.546875q-0.34375 0.78125 -0.9375 1.59375q-0.578125 0.8125 -1.46875 1.640625l-0.65625 -0.671875q1.28125 -1.25 1.890625 -2.609375q0.625 -1.375 0.625 -2.875q0 -3.09375 -2.515625 -5.578125l0.6875 -0.6875z" fill-rule="nonzero"/><path fill="#000000" fill-opacity="0.0" d="m121.44357 3.9238846l-0.09449005 35.496063" fill-rule="evenodd"/><path stroke="#000000" stroke-width="2.0" stroke-linejoin="round" stroke-linecap="butt" d="m121.44357 3.9238846l-0.09449005 35.496063" fill-rule="evenodd"/><path fill="#000000" fill-opacity="0.0" d="m121.34121 85.27821l-94.99213 34.92914" fill-rule="evenodd"/><path stroke="#000000" stroke-width="2.0" stroke-linejoin="round" stroke-linecap="butt" d="m121.34121 85.27821l-94.99213 34.92914" fill-rule="evenodd"/><path fill="#000000" fill-opacity="0.0" d="m121.34121 85.27821l-0.15748596 34.92914" fill-rule="evenodd"/><path stroke="#000000" stroke-width="2.0" stroke-linejoin="round" stroke-linecap="butt" d="m121.34121 85.27821l-0.15748596 34.92914" fill-rule="evenodd"/><path fill="#000000" fill-opacity="0.0" d="m123.703415 84.20735l94.67717 36.0" fill-rule="evenodd"/><path stroke="#000000" stroke-width="2.0" stroke-linejoin="round" stroke-linecap="butt" d="m123.703415 84.20735l94.67717 36.0" fill-rule="evenodd"/><path fill="#cfe2f3" d="m64.53018 39.136482l113.82677 0l0 45.85827l-113.82677 0z" fill-rule="evenodd"/><path stroke="#000000" stroke-width="1.0" stroke-linejoin="round" stroke-linecap="butt" d="m64.53018 39.136482l113.82677 0l0 45.85827l-113.82677 0z" fill-rule="evenodd"/><path fill="#000000" d="m87.48406 64.146866q0 0.625 -0.28125 1.15625q-0.265625 0.515625 -0.75 0.890625q-0.46875 0.375 -1.125 0.578125q-0.640625 0.203125 -1.40625 0.203125q-0.1875 0 -0.40625 -0.015625q-0.21875 0 -0.4375 -0.015625q-0.203125 -0.015625 -0.40625 -0.03125q-0.203125 -0.015625 -0.375 -0.046875l0 -1.03125q0.359375 0.09375 0.8125 0.140625q0.453125 0.03125 0.90625 0.03125q0.515625 0 0.9375 -0.125q0.421875 -0.125 0.703125 -0.359375q0.296875 -0.234375 0.453125 -0.5625q0.15625 -0.328125 0.15625 -0.734375q0 -0.796875 -0.578125 -1.15625q-0.5625 -0.359375 -1.625 -0.359375l-1.609375 0l0 -4.34375l4.578125 0l0 0.984375l-3.515625 0l0 2.390625l0.75 0q0.609375 0 1.1875 0.109375q0.578125 0.109375 1.03125 0.390625q0.453125 0.265625 0.71875 0.734375q0.28125 0.46875 0.28125 1.171875zm13.265106 5.453125q-3.0 -2.78125 -3.0 -6.140625q0 -0.796875 0.15625 -1.578125q0.15625 -0.78125 0.515625 -1.5625q0.359375 -0.796875 0.9375 -1.578125q0.578125 -0.796875 1.421875 -1.5625l0.65625 0.671875q-2.53125 2.484375 -2.53125 5.515625q0 1.515625 0.640625 2.90625q0.640625 1.390625 1.890625 2.625l-0.6875 0.703125zm8.593491 -4.515625q0 0.34375 -0.125 0.625q-0.109375 0.265625 -0.3125 0.484375q-0.203125 0.203125 -0.46875 0.359375q-0.265625 0.140625 -0.578125 0.25q-0.296875 0.09375 -0.625 0.125q-0.3125 0.046875 -0.609375 0.046875q-0.671875 0 -1.234375 -0.0625q-0.546875 -0.046875 -1.078125 -0.171875l0 -1.046875q0.5625 0.15625 1.125 0.25q0.578125 0.078125 1.140625 0.078125q0.8125 0 1.203125 -0.21875q0.390625 -0.21875 0.390625 -0.625q0 -0.1875 -0.0625 -0.3125q-0.0625 -0.140625 -0.234375 -0.265625q-0.15625 -0.140625 -0.5 -0.265625q-0.34375 -0.140625 -0.9375 -0.3125q-0.4375 -0.140625 -0.8125 -0.296875q-0.375 -0.171875 -0.65625 -0.390625q-0.265625 -0.234375 -0.421875 -0.53125q-0.15625 -0.3125 -0.15625 -0.734375q0 -0.265625 0.125 -0.59375q0.125 -0.328125 0.4375 -0.609375q0.3125 -0.28125 0.828125 -0.46875q0.515625 -0.1875 1.296875 -0.1875q0.390625 0 0.859375 0.046875q0.46875 0.046875 0.96875 0.140625l0 1.015625q-0.53125 -0.125 -1.015625 -0.1875q-0.46875 -0.0625 -0.828125 -0.0625q-0.421875 0 -0.71875 0.0625q-0.28125 0.0625 -0.46875 0.1875q-0.171875 0.109375 -0.25 0.265625q-0.078125 0.140625 -0.078125 0.3125q0 0.1875 0.0625 0.328125q0.078125 0.140625 0.265625 0.28125q0.1875 0.125 0.515625 0.265625q0.328125 0.125 0.859375 0.28125q0.59375 0.171875 0.984375 0.359375q0.390625 0.1875 0.640625 0.421875q0.25 0.21875 0.359375 0.515625q0.109375 0.28125 0.109375 0.640625zm4.3747406 -3.8125l-1.9375 0l0 -0.9375l3.078125 0l0 5.59375l1.953125 0l0 0.9375l-5.234375 0l0 -0.9375l2.140625 0l0 -4.65625zm0.390625 -3.6875q0.203125 0 0.359375 0.078125q0.15625 0.0625 0.28125 0.1875q0.125 0.125 0.1875 0.28125q0.078125 0.15625 0.078125 0.359375q0 0.171875 -0.078125 0.34375q-0.0625 0.15625 -0.1875 0.28125q-0.125 0.125 -0.28125 0.203125q-0.15625 0.0625 -0.359375 0.0625q-0.1875 0 -0.34375 -0.0625q-0.15625 -0.078125 -0.28125 -0.203125q-0.125 -0.125 -0.203125 -0.28125q-0.0625 -0.171875 -0.0625 -0.34375q0 -0.203125 0.0625 -0.359375q0.078125 -0.15625 0.203125 -0.28125q0.125 -0.125 0.28125 -0.1875q0.15625 -0.078125 0.34375 -0.078125zm10.296616 5.890625q0 0.8125 -0.234375 1.46875q-0.21875 0.640625 -0.640625 1.09375q-0.40625 0.4375 -1.0 0.671875q-0.578125 0.234375 -1.328125 0.234375q-0.578125 0 -1.1875 -0.109375q-0.59375 -0.109375 -1.1875 -0.359375l0 -8.8125l1.125 0l0 2.53125l-0.046875 1.21875q0.484375 -0.65625 1.03125 -0.921875q0.5625 -0.28125 1.203125 -0.28125q0.5625 0 0.984375 0.234375q0.421875 0.234375 0.703125 0.671875q0.296875 0.421875 0.4375 1.03125q0.140625 0.59375 0.140625 1.328125zm-1.15625 0.0625q0 -0.515625 -0.078125 -0.9375q-0.078125 -0.4375 -0.25 -0.734375q-0.15625 -0.3125 -0.40625 -0.484375q-0.25 -0.171875 -0.609375 -0.171875q-0.203125 0 -0.4375 0.0625q-0.21875 0.0625 -0.453125 0.234375q-0.234375 0.15625 -0.5 0.421875q-0.265625 0.265625 -0.5625 0.65625l0 3.15625q0.328125 0.140625 0.671875 0.21875q0.359375 0.0625 0.65625 0.0625q0.390625 0 0.75 -0.125q0.359375 -0.125 0.625 -0.40625q0.265625 -0.296875 0.421875 -0.765625q0.171875 -0.484375 0.171875 -1.1875zm5.124733 -4.9375l-1.9374924 0l0 -0.9375l3.0781174 0l0 8.265625l1.953125 0l0 0.9375l-5.2343674 0l0 -0.9375l2.1406174 0l0 -7.328125zm7.3278656 2.671875l-1.9375 0l0 -0.9375l3.078125 0l0 5.59375l1.953125 0l0 0.9375l-5.234375 0l0 -0.9375l2.140625 0l0 -4.65625zm0.390625 -3.6875q0.203125 0 0.359375 0.078125q0.15625 0.0625 0.28125 0.1875q0.125 0.125 0.1875 0.28125q0.078125 0.15625 0.078125 0.359375q0 0.171875 -0.078125 0.34375q-0.0625 0.15625 -0.1875 0.28125q-0.125 0.125 -0.28125 0.203125q-0.15625 0.0625 -0.359375 0.0625q-0.1875 0 -0.34375 -0.0625q-0.15625 -0.078125 -0.28125 -0.203125q-0.125 -0.125 -0.203125 -0.28125q-0.0625 -0.171875 -0.0625 -0.34375q0 -0.203125 0.0625 -0.359375q0.078125 -0.15625 0.203125 -0.28125q0.125 -0.125 0.28125 -0.1875q0.15625 -0.078125 0.34375 -0.078125zm4.7184906 2.75l1.0 0l0.046875 1.046875q0.28125 -0.328125 0.546875 -0.546875q0.28125 -0.234375 0.53125 -0.375q0.25 -0.140625 0.515625 -0.1875q0.28125 -0.0625 0.5625 -0.0625q1.015625 0 1.53125 0.609375q0.515625 0.59375 0.515625 1.78125l0 4.265625l-1.140625 0l0 -4.171875q0 -0.765625 -0.28125 -1.125q-0.28125 -0.375 -0.859375 -0.375q-0.203125 0 -0.40625 0.0625q-0.1875 0.0625 -0.40625 0.21875q-0.21875 0.140625 -0.46875 0.40625q-0.25 0.265625 -0.5625 0.65625l0 4.328125l-1.125 0l0 -6.53125zm12.030991 0.921875q0.171875 0.234375 0.265625 0.53125q0.109375 0.296875 0.109375 0.65625q0 0.5 -0.1875 0.921875q-0.171875 0.421875 -0.515625 0.71875q-0.34375 0.296875 -0.8125 0.46875q-0.46875 0.171875 -1.03125 0.171875q-0.421875 0 -0.78125 -0.09375q-0.34375 -0.09375 -0.5625 -0.21875q-0.125 0.1875 -0.203125 0.34375q-0.078125 0.15625 -0.078125 0.359375q0 0.25 0.234375 0.421875q0.234375 0.15625 0.625 0.171875l1.71875 0.0625q0.484375 0.015625 0.890625 0.125q0.421875 0.109375 0.71875 0.328125q0.296875 0.203125 0.453125 0.515625q0.171875 0.296875 0.171875 0.703125q0 0.4375 -0.1875 0.828125q-0.1875 0.390625 -0.578125 0.671875q-0.390625 0.296875 -1.0 0.46875q-0.609375 0.1875 -1.4375 0.1875q-0.796875 0 -1.359375 -0.125q-0.546875 -0.125 -0.90625 -0.359375q-0.359375 -0.21875 -0.53125 -0.53125q-0.15625 -0.3125 -0.15625 -0.671875q0 -0.484375 0.21875 -0.84375q0.21875 -0.359375 0.6875 -0.6875q-0.171875 -0.078125 -0.296875 -0.1875q-0.125 -0.125 -0.203125 -0.265625q-0.078125 -0.140625 -0.125 -0.296875q-0.03125 -0.15625 -0.03125 -0.296875q0 -0.421875 0.203125 -0.765625q0.203125 -0.359375 0.46875 -0.671875q-0.125 -0.15625 -0.21875 -0.296875q-0.09375 -0.140625 -0.15625 -0.296875q-0.0625 -0.171875 -0.109375 -0.359375q-0.03125 -0.203125 -0.03125 -0.453125q0 -0.5 0.1875 -0.921875q0.1875 -0.421875 0.515625 -0.71875q0.34375 -0.296875 0.8125 -0.46875q0.46875 -0.171875 1.046875 -0.171875q0.234375 0 0.453125 0.03125q0.21875 0.03125 0.390625 0.09375l2.375 0l0 0.921875l-1.046875 0zm-3.9375 6.546875q0 0.46875 0.484375 0.671875q0.484375 0.21875 1.34375 0.21875q0.53125 0 0.890625 -0.09375q0.375 -0.09375 0.59375 -0.265625q0.234375 -0.15625 0.328125 -0.359375q0.109375 -0.203125 0.109375 -0.421875q0 -0.390625 -0.328125 -0.578125q-0.328125 -0.1875 -1.0 -0.21875l-1.703125 -0.0625q-0.21875 0.140625 -0.359375 0.265625q-0.140625 0.140625 -0.21875 0.28125q-0.078125 0.140625 -0.109375 0.28125q-0.03125 0.140625 -0.03125 0.28125zm0.34375 -5.34375q0 0.3125 0.109375 0.578125q0.109375 0.265625 0.296875 0.453125q0.1875 0.171875 0.4375 0.28125q0.265625 0.09375 0.578125 0.09375q0.328125 0 0.59375 -0.109375q0.265625 -0.125 0.4375 -0.3125q0.1875 -0.203125 0.28125 -0.453125q0.09375 -0.25 0.09375 -0.53125q0 -0.3125 -0.109375 -0.5625q-0.09375 -0.265625 -0.28125 -0.4375q-0.1875 -0.1875 -0.453125 -0.28125q-0.25 -0.109375 -0.5625 -0.109375q-0.34375 0 -0.609375 0.125q-0.265625 0.109375 -0.453125 0.296875q-0.171875 0.1875 -0.265625 0.453125q-0.09375 0.25 -0.09375 0.515625zm7.5466156 -5.28125q3.0 2.78125 3.0 6.1875q0 0.6875 -0.140625 1.453125q-0.140625 0.75 -0.484375 1.546875q-0.34375 0.78125 -0.9375 1.59375q-0.578125 0.8125 -1.46875 1.640625l-0.65625 -0.671875q1.28125 -1.25 1.890625 -2.609375q0.625 -1.375 0.625 -2.875q0 -3.09375 -2.515625 -5.578125l0.6875 -0.6875z" fill-rule="nonzero"/></g></svg>