<svg version="1.1" viewBox="0.0 0.0 147.89763779527559 135.20997375328085" fill="none" stroke="none" stroke-linecap="square" stroke-miterlimit="10" xmlns:xlink="http://www.w3.org/1999/xlink" xmlns="http://www.w3.org/2000/svg"><clipPath id="p.0"><path d="m0 0l147.89764 0l0 135.20998l-147.89764 0l0 -135.20998z" clip-rule="nonzero"/></clipPath><g clip-path="url(#p.0)"><path fill="#000000" fill-opacity="0.0" d="m0 0l147.89764 0l0 135.20998l-147.89764 0z" fill-rule="evenodd"/><path fill="#000000" d="m82.30971 26.543306l0 0c0 -12.66341 10.350334 -22.929132 23.11811 -22.929132l0 0c6.1313095 0 12.01149 2.4157412 16.346977 6.715788c4.3354874 4.300047 6.7711334 10.132161 6.7711334 16.213345l0 0c0 12.663412 -10.350327 22.929136 -23.11811 22.929136l0 0c-12.7677765 0 -23.11811 -10.265724 -23.11811 -22.929136z" fill-rule="evenodd"/><path stroke="#000000" stroke-width="1.0" stroke-linejoin="round" stroke-linecap="butt" d="m82.30971 26.543306l0 0c0 -12.66341 10.350334 -22.929132 23.11811 -22.929132l0 0c6.1313095 0 12.01149 2.4157412 16.346977 6.715788c4.3354874 4.300047 6.7711334 10.132161 6.7711334 16.213345l0 0c0 12.663412 -10.350327 22.929136 -23.11811 22.929136l0 0c-12.7677765 0 -23.11811 -10.265724 -23.11811 -22.929136z" fill-rule="evenodd"/><path fill="#ffffff" d="m107.19309 33.463306l-1.640625 0l0 -10.453125q-0.5937576 0.5625 -1.5625076 1.140625q-0.953125 0.5625 -1.71875 0.84375l0 -1.59375q1.375 -0.640625 2.40625 -1.5625q1.0312576 -0.921875 1.4531326 -1.78125l1.0625 0l0 13.40625z" fill-rule="nonzero"/><path fill="#ff0000" d="m2.2782152 108.54855l0 0c0 -12.663406 10.35033 -22.92913 23.11811 -22.92913l0 0c6.131304 0 12.011484 2.415741 16.346972 6.71579c4.3354874 4.300041 6.771137 10.132156 6.771137 16.21334l0 0c0 12.663414 -10.35033 22.929138 -23.118109 22.929138l0 0c-12.76778 0 -23.11811 -10.265724 -23.11811 -22.929138z" fill-rule="evenodd"/><path stroke="#000000" stroke-width="1.0" stroke-linejoin="round" stroke-linecap="butt" d="m2.2782152 108.54855l0 0c0 -12.663406 10.35033 -22.92913 23.11811 -22.92913l0 0c6.131304 0 12.011484 2.415741 16.346972 6.71579c4.3354874 4.300041 6.771137 10.132156 6.771137 16.21334l0 0c0 12.663414 -10.35033 22.929138 -23.118109 22.929138l0 0c-12.76778 0 -23.11811 -10.265724 -23.11811 -22.929138z" fill-rule="evenodd"/><path fill="#ffffff" d="m29.970804 115.46855l-2.109375 0l-2.46875 -3.484375l-2.4375 3.484375l-2.046875 0l3.546875 -4.59375l-3.390625 -4.546875l2.03125 0l2.40625 3.515625l2.359375 -3.515625l1.96875 0l-3.4375 4.578125l3.578125 4.5625z" fill-rule="nonzero"/><path fill="#000000" fill-opacity="0.0" d="m25.396326 85.61942l80.031494 -36.157482" fill-rule="evenodd"/><path stroke="#000000" stroke-width="2.0" stroke-linejoin="round" stroke-linecap="butt" d="m25.396326 85.61942l80.031494 -36.157482" fill-rule="evenodd"/></g></svg>