<svg version="1.1" viewBox="0.0 0.0 290.31496062992125 210.76115485564304" fill="none" stroke="none" stroke-linecap="square" stroke-miterlimit="10" xmlns:xlink="http://www.w3.org/1999/xlink" xmlns="http://www.w3.org/2000/svg"><clipPath id="p.0"><path d="m0 0l290.31497 0l0 210.76115l-290.31497 0l0 -210.76115z" clip-rule="nonzero"/></clipPath><g clip-path="url(#p.0)"><path fill="#000000" fill-opacity="0.0" d="m0 0l290.31497 0l0 210.76115l-290.31497 0z" fill-rule="evenodd"/><path fill="#cfe2f3" d="m84.40945 0l113.826775 0l0 45.85827l-113.826775 0z" fill-rule="evenodd"/><path stroke="#000000" stroke-width="1.0" stroke-linejoin="round" stroke-linecap="butt" d="m84.40945 0l113.826775 0l0 45.85827l-113.826775 0z" fill-rule="evenodd"/><path fill="#000000" d="m119.83221 25.114758q0 1.21875 -0.34375 2.140625q-0.34375 0.90625 -0.953125 1.515625q-0.59375 0.59375 -1.421875 0.890625q-0.8125 0.296875 -1.765625 0.296875q-0.4375 0 -0.875 -0.046875q-0.4375 -0.046875 -0.875 -0.15625l0 3.828125l-1.59375 0l0 -12.875l1.421875 0l0.09375 1.53125q0.6875 -0.9375 1.453125 -1.3125q0.78125 -0.390625 1.6875 -0.390625q0.78125 0 1.375 0.328125q0.59375 0.328125 0.984375 0.9375q0.40625 0.59375 0.609375 1.4375q0.203125 0.828125 0.203125 1.875zm-1.625 0.0625q0 -0.71875 -0.109375 -1.3125q-0.109375 -0.609375 -0.34375 -1.03125q-0.21875 -0.421875 -0.578125 -0.65625q-0.34375 -0.25 -0.84375 -0.25q-0.296875 0 -0.609375 0.09375q-0.3125 0.09375 -0.640625 0.328125q-0.328125 0.21875 -0.703125 0.59375q-0.359375 0.359375 -0.78125 0.90625l0 4.4375q0.4375 0.171875 0.921875 0.28125q0.484375 0.109375 0.9375 0.109375q1.28125 0 2.015625 -0.875q0.734375 -0.875 0.734375 -2.625zm9.929161 4.671875l-0.03125 -1.234375q-0.7499924 0.75 -1.5156174 1.078125q-0.765625 0.3125 -1.625 0.3125q-0.78125 0 -1.34375 -0.1875q-0.546875 -0.203125 -0.90625 -0.546875q-0.359375 -0.359375 -0.53125 -0.828125q-0.15625 -0.484375 -0.15625 -1.03125q0 -1.375 1.015625 -2.15625q1.03125 -0.78125 3.03125 -0.78125l1.890625 0l0 -0.796875q0 -0.8125 -0.515625 -1.296875q-0.515625 -0.5 -1.578125 -0.5q-0.78125 0 -1.53125 0.1875q-0.75 0.171875 -1.546875 0.484375l0 -1.4375q0.296875 -0.109375 0.65625 -0.203125q0.375 -0.109375 0.78125 -0.1875q0.40625 -0.078125 0.859375 -0.125q0.453125 -0.0625 0.90625 -0.0625q0.828125 0 1.484375 0.1875q0.6718674 0.171875 1.1249924 0.546875q0.46875 0.375 0.703125 0.953125q0.25 0.5625 0.25 1.328125l0 6.296875l-1.421875 0zm-0.17186737 -4.15625l-2.015625 0q-0.578125 0 -1.015625 0.125q-0.421875 0.109375 -0.703125 0.328125q-0.265625 0.21875 -0.40625 0.53125q-0.125 0.296875 -0.125 0.671875q0 0.265625 0.078125 0.515625q0.078125 0.234375 0.265625 0.421875q0.1875 0.1875 0.46875 0.296875q0.296875 0.109375 0.71875 0.109375q0.546875 0 1.25 -0.328125q0.703125 -0.34375 1.484375 -1.0625l0 -1.609375zm4.929161 -4.984375l1.453125 0l0.046875 1.6875q0.8125 -0.984375 1.59375 -1.421875q0.796875 -0.4375 1.59375 -0.4375q1.421875 0 2.15625 0.921875q0.734375 0.921875 0.671875 2.734375l-1.59375 0q0.015625 -1.203125 -0.359375 -1.734375q-0.375 -0.546875 -1.109375 -0.546875q-0.3125 0 -0.640625 0.109375q-0.328125 0.109375 -0.671875 0.359375q-0.328125 0.25 -0.71875 0.640625q-0.375 0.390625 -0.8125 0.953125l0 5.875l-1.609375 0l0 -9.140625zm17.616684 4.078125q0 0.34375 -0.015625 0.578125q0 0.21875 -0.03125 0.421875l-6.4218903 0q0 1.40625 0.78125 2.15625q0.796875 0.75 2.265625 0.75q0.40625 0 0.796875 -0.03125q0.40625 -0.03125 0.78126526 -0.078125q0.375 -0.0625 0.71875 -0.125q0.34375 -0.078125 0.625 -0.15625l0 1.296875q-0.640625 0.1875 -1.46875 0.296875q-0.81251526 0.109375 -1.6875153 0.109375q-1.171875 0 -2.015625 -0.3125q-0.84375 -0.3125 -1.390625 -0.921875q-0.546875 -0.609375 -0.8125 -1.484375q-0.25 -0.875 -0.25 -2.0q0 -0.953125 0.28125 -1.8125q0.28125 -0.859375 0.8125 -1.515625q0.53125 -0.65625 1.296875 -1.03125q0.78125 -0.390625 1.765625 -0.390625q0.953125 0 1.6875 0.3125q0.75001526 0.296875 1.2500153 0.84375q0.5 0.546875 0.765625 1.34375q0.265625 0.78125 0.265625 1.75zm-1.65625 -0.21875q0.03125 -0.609375 -0.125 -1.109375q-0.140625 -0.515625 -0.45314026 -0.875q-0.296875 -0.375 -0.75 -0.578125q-0.453125 -0.203125 -1.0625 -0.203125q-0.515625 0 -0.953125 0.203125q-0.421875 0.203125 -0.734375 0.5625q-0.296875 0.359375 -0.5 0.875q-0.1875 0.515625 -0.234375 1.125l4.8125153 0zm4.1791687 -3.859375l1.421875 0l0.0625 1.46875q0.390625 -0.46875 0.765625 -0.78125q0.375 -0.3125 0.734375 -0.5q0.359375 -0.203125 0.734375 -0.28125q0.375 -0.078125 0.78125 -0.078125q1.40625 0 2.125 0.84375q0.734375 0.828125 0.734375 2.5l0 5.96875l-1.59375 0l0 -5.84375q0 -1.078125 -0.40625 -1.578125q-0.390625 -0.515625 -1.1875 -0.515625q-0.28125 0 -0.5625 0.09375q-0.28125 0.078125 -0.578125 0.296875q-0.296875 0.203125 -0.65625 0.578125q-0.34375 0.359375 -0.78125 0.90625l0 6.0625l-1.59375 0l0 -9.140625zm17.632294 9.015625q-0.53125 0.140625 -1.109375 0.1875q-0.578125 0.0625 -1.171875 0.0625q-1.71875 0 -2.5625 -0.78125q-0.84375 -0.78125 -0.84375 -2.390625l0 -4.765625l-2.5625 0l0 -1.328125l2.5625 0l0 -2.515625l1.578125 -0.40625l0 2.921875l4.109375 0l0 1.328125l-4.109375 0l0 4.640625q0 0.984375 0.515625 1.46875q0.53125 0.484375 1.546875 0.484375q0.4375 0 0.953125 -0.0625q0.53125 -0.0625 1.09375 -0.21875l0 1.375z" fill-rule="nonzero"/><path fill="#cfe2f3" d="m104.76378 81.362206l72.59842 0l0 45.85827l-72.59842 0z" fill-rule="evenodd"/><path stroke="#000000" stroke-width="1.0" stroke-linejoin="round" stroke-linecap="butt" d="m104.76378 81.362206l72.59842 0l0 45.85827l-72.59842 0z" fill-rule="evenodd"/><path fill="#000000" d="m134.55205 107.398834q0 0.890625 -0.390625 1.625q-0.375 0.71875 -1.046875 1.25q-0.65625 0.515625 -1.578125 0.8125q-0.90625 0.28125 -1.953125 0.28125q-0.265625 0 -0.578125 -0.015625q-0.296875 0 -0.609375 -0.03125q-0.296875 -0.015625 -0.5937424 -0.046875q-0.28125 -0.03125 -0.5 -0.0625l0 -1.4375q0.484375 0.109375 1.1093674 0.171875q0.640625 0.046875 1.296875 0.046875q0.71875 0 1.296875 -0.171875q0.59375 -0.171875 1.0 -0.484375q0.40625 -0.328125 0.625 -0.78125q0.21875 -0.46875 0.21875 -1.046875q0 -1.109375 -0.796875 -1.609375q-0.796875 -0.515625 -2.28125 -0.515625l-2.2656174 0l0 -6.078125l6.4218674 0l0 1.390625l-4.921875 0l0 3.34375l1.03125 0q0.859375 0 1.671875 0.15625q0.8125 0.140625 1.4375 0.53125q0.640625 0.390625 1.015625 1.046875q0.390625 0.640625 0.390625 1.625zm20.764587 -2.8125q0 1.75 -0.421875 3.0q-0.421875 1.25 -1.25 2.0625q-0.8125 0.796875 -2.03125 1.1875q-1.203125 0.375 -2.796875 0.375l-0.984375 0l0 -1.390625l1.09375 0q1.1875 0 2.03125 -0.234375q0.859375 -0.234375 1.421875 -0.6875q0.578125 -0.46875 0.875 -1.125q0.3125 -0.65625 0.375 -1.515625l0.046875 -0.359375q-0.578125 0.328125 -1.328125 0.53125q-0.75 0.203125 -1.625 0.203125q-0.890625 0 -1.578125 -0.25q-0.6875 -0.265625 -1.140625 -0.734375q-0.453125 -0.484375 -0.6875 -1.125q-0.21875 -0.65625 -0.21875 -1.421875q0 -0.84375 0.296875 -1.5625q0.3125 -0.71875 0.84375 -1.25q0.546875 -0.53125 1.296875 -0.828125q0.765625 -0.3125 1.671875 -0.3125q0.890625 0 1.640625 0.296875q0.75 0.28125 1.296875 0.9375q0.546875 0.640625 0.859375 1.6875q0.3125 1.03125 0.3125 2.515625zm-4.171875 -4.140625q-0.515625 0 -0.953125 0.171875q-0.421875 0.15625 -0.75 0.484375q-0.3125 0.328125 -0.5 0.796875q-0.171875 0.46875 -0.171875 1.09375q0 0.546875 0.125 0.984375q0.140625 0.4375 0.40625 0.75q0.28125 0.296875 0.71875 0.46875q0.4375 0.15625 1.046875 0.15625q0.328125 0 0.6875 -0.0625q0.375 -0.0625 0.703125 -0.171875q0.34375 -0.109375 0.65625 -0.25q0.3125 -0.15625 0.5625 -0.3125q0 -1.171875 -0.1875 -1.953125q-0.171875 -0.796875 -0.5 -1.265625q-0.3125 -0.484375 -0.796875 -0.6875q-0.46875 -0.203125 -1.046875 -0.203125z" fill-rule="nonzero"/><path fill="#cfe2f3" d="m23.110237 162.14174l46.23622 0l0 45.85826l-46.23622 0z" fill-rule="evenodd"/><path stroke="#000000" stroke-width="1.0" stroke-linejoin="round" stroke-linecap="butt" d="m23.110237 162.14174l46.23622 0l0 45.85826l-46.23622 0z" fill-rule="evenodd"/><path fill="#000000" d="m48.427826 191.99086l-0.03125 -1.234375q-0.75 0.75 -1.515625 1.078125q-0.765625 0.3125 -1.625 0.3125q-0.78125 0 -1.34375 -0.1875q-0.546875 -0.203125 -0.90625 -0.546875q-0.359375 -0.359375 -0.53125 -0.828125q-0.15625 -0.484375 -0.15625 -1.03125q0 -1.375 1.015625 -2.15625q1.03125 -0.78125 3.03125 -0.78125l1.890625 0l0 -0.796875q0 -0.8125 -0.515625 -1.296875q-0.515625 -0.5 -1.578125 -0.5q-0.78125 0 -1.53125 0.1875q-0.75 0.171875 -1.546875 0.484375l0 -1.4375q0.296875 -0.109375 0.65625 -0.203125q0.375 -0.109375 0.78125 -0.1875q0.40625 -0.078125 0.859375 -0.125q0.453125 -0.0625 0.90625 -0.0625q0.828125 0 1.484375 0.1875q0.671875 0.171875 1.125 0.546875q0.46875 0.375 0.703125 0.953125q0.25 0.5625 0.25 1.328125l0 6.296875l-1.421875 0zm-0.171875 -4.15625l-2.015625 0q-0.578125 0 -1.015625 0.125q-0.421875 0.109375 -0.703125 0.328125q-0.265625 0.21875 -0.40625 0.53125q-0.125 0.296875 -0.125 0.671875q0 0.265625 0.078125 0.515625q0.078125 0.234375 0.265625 0.421875q0.1875 0.1875 0.46875 0.296875q0.296875 0.109375 0.71875 0.109375q0.546875 0 1.25 -0.328125q0.703125 -0.34375 1.484375 -1.0625l0 -1.609375z" fill-rule="nonzero"/><path fill="#cfe2f3" d="m117.944885 162.14174l46.23622 0l0 45.85826l-46.23622 0z" fill-rule="evenodd"/><path stroke="#000000" stroke-width="1.0" stroke-linejoin="round" stroke-linecap="butt" d="m117.944885 162.14174l46.23622 0l0 45.85826l-46.23622 0z" fill-rule="evenodd"/><path fill="#000000" d="m145.21559 187.25648q0 1.140625 -0.328125 2.046875q-0.3125 0.890625 -0.890625 1.515625q-0.578125 0.609375 -1.40625 0.953125q-0.828125 0.328125 -1.859375 0.328125q-0.8125 0 -1.671875 -0.15625q-0.84375 -0.15625 -1.671875 -0.484375l0 -12.34375l1.59375 0l0 3.546875l-0.078125 1.6875q0.6875 -0.90625 1.453125 -1.28125q0.78125 -0.390625 1.6875 -0.390625q0.78125 0 1.375 0.328125q0.59375 0.328125 0.984375 0.9375q0.40625 0.59375 0.609375 1.4375q0.203125 0.828125 0.203125 1.875zm-1.625 0.0625q0 -0.71875 -0.109375 -1.3125q-0.109375 -0.609375 -0.34375 -1.03125q-0.21875 -0.421875 -0.578125 -0.65625q-0.34375 -0.25 -0.84375 -0.25q-0.296875 0 -0.609375 0.09375q-0.3125 0.09375 -0.640625 0.328125q-0.328125 0.21875 -0.703125 0.59375q-0.359375 0.359375 -0.78125 0.90625l0 4.4375q0.453125 0.171875 0.9375 0.28125q0.484375 0.109375 0.921875 0.109375q0.546875 0 1.046875 -0.171875q0.5 -0.171875 0.875 -0.578125q0.375 -0.40625 0.59375 -1.078125q0.234375 -0.671875 0.234375 -1.671875z" fill-rule="nonzero"/><path fill="#cfe2f3" d="m212.77953 163.22047l46.23622 0l0 45.85826l-46.23622 0z" fill-rule="evenodd"/><path stroke="#000000" stroke-width="1.0" stroke-linejoin="round" stroke-linecap="butt" d="m212.77953 163.22047l46.23622 0l0 45.85826l-46.23622 0z" fill-rule="evenodd"/><path fill="#000000" d="m239.3315 192.72586q-0.625 0.25 -1.28125 0.359375q-0.640625 0.109375 -1.328125 0.109375q-2.171875 0 -3.34375 -1.171875q-1.171875 -1.171875 -1.171875 -3.4375q0 -1.078125 0.328125 -1.953125q0.34375 -0.890625 0.953125 -1.515625q0.609375 -0.640625 1.453125 -0.984375q0.859375 -0.34375 1.875 -0.34375q0.71875 0 1.328125 0.109375q0.625 0.09375 1.1875 0.328125l0 1.515625q-0.59375 -0.3125 -1.21875 -0.453125q-0.609375 -0.140625 -1.265625 -0.140625q-0.609375 0 -1.15625 0.234375q-0.53125 0.234375 -0.9375 0.671875q-0.40625 0.421875 -0.65625 1.0625q-0.234375 0.625 -0.234375 1.421875q0 1.65625 0.796875 2.484375q0.8125 0.8125 2.25 0.8125q0.640625 0 1.25 -0.140625q0.609375 -0.140625 1.171875 -0.4375l0 1.46875z" fill-rule="nonzero"/><path fill="#000000" fill-opacity="0.0" d="m141.32283 45.85827l-0.25196838 35.496063" fill-rule="evenodd"/><path stroke="#000000" stroke-width="2.0" stroke-linejoin="round" stroke-linecap="butt" d="m141.32283 45.85827l-0.25196838 35.496063" fill-rule="evenodd"/><path fill="#000000" fill-opacity="0.0" d="m141.06299 127.220474l-94.83464 34.92914" fill-rule="evenodd"/><path stroke="#000000" stroke-width="2.0" stroke-linejoin="round" stroke-linecap="butt" d="m141.06299 127.220474l-94.83464 34.92914" fill-rule="evenodd"/><path fill="#000000" fill-opacity="0.0" d="m141.06299 127.220474l0 34.92914" fill-rule="evenodd"/><path stroke="#000000" stroke-width="2.0" stroke-linejoin="round" stroke-linecap="butt" d="m141.06299 127.220474l0 34.92914" fill-rule="evenodd"/><path fill="#000000" fill-opacity="0.0" d="m141.06299 127.220474l94.834656 36.0" fill-rule="evenodd"/><path stroke="#000000" stroke-width="2.0" stroke-linejoin="round" stroke-linecap="butt" d="m141.06299 127.220474l94.834656 36.0" fill-rule="evenodd"/></g></svg>