<svg version="1.1" viewBox="0.0 0.0 298.6719160104987 280.56955380577426" fill="none" stroke="none" stroke-linecap="square" stroke-miterlimit="10" xmlns:xlink="http://www.w3.org/1999/xlink" xmlns="http://www.w3.org/2000/svg"><clipPath id="p.0"><path d="m0 0l298.6719 0l0 280.56955l-298.6719 0l0 -280.56955z" clip-rule="nonzero"/></clipPath><g clip-path="url(#p.0)"><path fill="#000000" fill-opacity="0.0" d="m0 0l298.6719 0l0 280.56955l-298.6719 0z" fill-rule="evenodd"/><path fill="#000000" d="m126.1706 100.855644l0 0c0 -12.663414 10.350334 -22.929138 23.11811 -22.929138l0 0c6.131302 0 12.01149 2.415741 16.34697 6.71579c4.335495 4.300049 6.7711487 10.132164 6.7711487 16.213348l0 0c0 12.663406 -10.350342 22.92913 -23.118118 22.92913l0 0c-12.7677765 0 -23.11811 -10.265724 -23.11811 -22.92913z" fill-rule="evenodd"/><path stroke="#000000" stroke-width="1.0" stroke-linejoin="round" stroke-linecap="butt" d="m126.1706 100.855644l0 0c0 -12.663414 10.350334 -22.929138 23.11811 -22.929138l0 0c6.131302 0 12.01149 2.415741 16.34697 6.71579c4.335495 4.300049 6.7711487 10.132164 6.7711487 16.213348l0 0c0 12.663406 -10.350342 22.92913 -23.118118 22.92913l0 0c-12.7677765 0 -23.11811 -10.265724 -23.11811 -22.92913z" fill-rule="evenodd"/><path fill="#ffffff" d="m145.11649 104.68189l1.578125 -0.140625q0.203125 1.109375 0.765625 1.609375q0.5625 0.5 1.453125 0.5q0.75 0 1.3125 -0.34375q0.578125 -0.34375 0.9375 -0.921875q0.375 -0.578125 0.609375 -1.5625q0.25 -0.984375 0.25 -2.0q0 -0.109375 0 -0.328125q-0.5 0.78125 -1.359375 1.265625q-0.84375 0.484375 -1.828125 0.484375q-1.671875 0 -2.8125 -1.203125q-1.140625 -1.203125 -1.140625 -3.171875q0 -2.03125 1.1875 -3.265625q1.203125 -1.234375 3.0 -1.234375q1.3125 0 2.390625 0.703125q1.078125 0.703125 1.640625 2.0q0.5625 1.296875 0.5625 3.75q0 2.5625 -0.5625 4.078125q-0.5625 1.515625 -1.65625 2.3125q-1.09375 0.796875 -2.578125 0.796875q-1.5625 0 -2.5625 -0.875q-0.984375 -0.875 -1.1875 -2.453125zm6.71875 -5.890625q0 -1.40625 -0.75 -2.234375q-0.75 -0.828125 -1.8125 -0.828125q-1.09375 0 -1.90625 0.890625q-0.8125 0.890625 -0.8125 2.3125q0 1.28125 0.765625 2.078125q0.78125 0.796875 1.90625 0.796875q1.140625 0 1.875 -0.796875q0.734375 -0.796875 0.734375 -2.21875z" fill-rule="nonzero"/><path fill="#cfe2f3" d="m92.37533 0l113.826775 0l0 45.85827l-113.826775 0z" fill-rule="evenodd"/><path stroke="#000000" stroke-width="1.0" stroke-linejoin="round" stroke-linecap="butt" d="m92.37533 0l113.826775 0l0 45.85827l-113.826775 0z" fill-rule="evenodd"/><path fill="#000000" d="m112.25056 15.290384q0 0.953125 -0.265625 1.671875q-0.265625 0.71875 -0.75 1.1875q-0.46875 0.46875 -1.109375 0.703125q-0.640625 0.234375 -1.390625 0.234375q-0.34375 0 -0.6875 -0.03125q-0.34375 -0.03125 -0.6875 -0.125l0 3.015625l-1.25 0l0 -10.125l1.109375 0l0.078125 1.203125q0.546875 -0.734375 1.15625 -1.03125q0.609375 -0.296875 1.3125 -0.296875q0.609375 0 1.078125 0.265625q0.46875 0.25 0.78125 0.71875q0.3125 0.46875 0.46875 1.140625q0.15625 0.65625 0.15625 1.46875zm-1.265625 0.046875q0 -0.5625 -0.09375 -1.03125q-0.078125 -0.46875 -0.265625 -0.796875q-0.171875 -0.34375 -0.453125 -0.53125q-0.265625 -0.1875 -0.65625 -0.1875q-0.234375 0 -0.484375 0.078125q-0.234375 0.0625 -0.5 0.25q-0.265625 0.171875 -0.5625 0.46875q-0.28125 0.28125 -0.609375 0.703125l0 3.484375q0.34375 0.140625 0.71875 0.234375q0.390625 0.078125 0.75 0.078125q1.0 0 1.578125 -0.6875q0.578125 -0.6875 0.578125 -2.0625zm7.808075 3.671875l-0.03125 -0.96875q-0.59375 0.578125 -1.203125 0.84375q-0.59375 0.25 -1.265625 0.25q-0.609375 0 -1.046875 -0.15625q-0.4375 -0.15625 -0.71875 -0.421875q-0.28125 -0.28125 -0.421875 -0.65625q-0.125 -0.375 -0.125 -0.8125q0 -1.078125 0.796875 -1.6875q0.8125 -0.609375 2.390625 -0.609375l1.484375 0l0 -0.640625q0 -0.625 -0.40625 -1.0q-0.40625 -0.390625 -1.25 -0.390625q-0.609375 0 -1.203125 0.140625q-0.578125 0.125 -1.21875 0.375l0 -1.125q0.25 -0.078125 0.53125 -0.15625q0.296875 -0.09375 0.609375 -0.15625q0.328125 -0.0625 0.671875 -0.09375q0.359375 -0.046875 0.71875 -0.046875q0.640625 0 1.15625 0.140625q0.53125 0.140625 0.890625 0.4375q0.359375 0.296875 0.546875 0.75q0.203125 0.4375 0.203125 1.03125l0 4.953125l-1.109375 0zm-0.140625 -3.265625l-1.578125 0q-0.46875 0 -0.8125 0.09375q-0.328125 0.09375 -0.546875 0.265625q-0.21875 0.171875 -0.328125 0.40625q-0.09375 0.234375 -0.09375 0.546875q0 0.203125 0.0625 0.390625q0.0625 0.1875 0.203125 0.34375q0.15625 0.140625 0.375 0.234375q0.234375 0.078125 0.5625 0.078125q0.4375 0 0.984375 -0.265625q0.5625 -0.265625 1.171875 -0.828125l0 -1.265625zm3.870575 -3.921875l1.140625 0l0.03125 1.328125q0.640625 -0.765625 1.25 -1.109375q0.625 -0.34375 1.25 -0.34375q1.125 0 1.703125 0.71875q0.5781174 0.71875 0.5312424 2.15625l-1.2656174 0q0.03125 -0.953125 -0.265625 -1.375q-0.296875 -0.421875 -0.875 -0.421875q-0.25 0 -0.515625 0.09375q-0.25 0.078125 -0.515625 0.28125q-0.265625 0.1875 -0.5625 0.5q-0.296875 0.3125 -0.640625 0.75l0 4.609375l-1.265625 0l0 -7.1875zm13.839317 3.21875q0 0.265625 -0.015625 0.453125q0 0.171875 -0.015625 0.328125l-5.046875 0q0 1.09375 0.609375 1.6875q0.625 0.59375 1.78125 0.59375q0.3125 0 0.625 -0.015625q0.3125 -0.03125 0.609375 -0.078125q0.296875 -0.046875 0.5625 -0.09375q0.265625 -0.0625 0.5 -0.125l0 1.03125q-0.515625 0.140625 -1.15625 0.21875q-0.640625 0.09375 -1.328125 0.09375q-0.921875 0 -1.59375 -0.25q-0.65625 -0.25 -1.078125 -0.71875q-0.421875 -0.484375 -0.625 -1.171875q-0.203125 -0.6875 -0.203125 -1.5625q0 -0.765625 0.21875 -1.4375q0.21875 -0.671875 0.625 -1.1875q0.421875 -0.515625 1.03125 -0.8125q0.609375 -0.296875 1.375 -0.296875q0.765625 0 1.34375 0.234375q0.578125 0.234375 0.96875 0.671875q0.40625 0.4375 0.609375 1.0625q0.203125 0.609375 0.203125 1.375zm-1.296875 -0.1875q0.015625 -0.46875 -0.109375 -0.859375q-0.109375 -0.40625 -0.34375 -0.6875q-0.234375 -0.296875 -0.59375 -0.453125q-0.359375 -0.15625 -0.828125 -0.15625q-0.40625 0 -0.75 0.15625q-0.328125 0.15625 -0.578125 0.4375q-0.25 0.28125 -0.40625 0.6875q-0.140625 0.40625 -0.171875 0.875l3.78125 0zm3.276825 -3.03125l1.109375 0l0.046875 1.15625q0.328125 -0.359375 0.609375 -0.609375q0.296875 -0.25 0.578125 -0.390625q0.28125 -0.15625 0.578125 -0.21875q0.296875 -0.0625 0.609375 -0.0625q1.109375 0 1.671875 0.65625q0.578125 0.65625 0.578125 1.96875l0 4.6875l-1.25 0l0 -4.59375q0 -0.84375 -0.3125 -1.234375q-0.3125 -0.40625 -0.9375 -0.40625q-0.234375 0 -0.453125 0.0625q-0.21875 0.0625 -0.453125 0.234375q-0.234375 0.171875 -0.515625 0.453125q-0.265625 0.28125 -0.609375 0.71875l0 4.765625l-1.25 0l0 -7.1875zm13.85495 7.09375q-0.421875 0.09375 -0.875 0.140625q-0.453125 0.046875 -0.921875 0.046875q-1.34375 0 -2.015625 -0.609375q-0.65625 -0.609375 -0.65625 -1.875l0 -3.75l-2.015625 0l0 -1.046875l2.015625 0l0 -1.96875l1.234375 -0.328125l0 2.296875l3.234375 0l0 1.046875l-3.234375 0l0 3.65625q0 0.765625 0.40625 1.15625q0.421875 0.375 1.21875 0.375q0.34375 0 0.75 -0.046875q0.40625 -0.0625 0.859375 -0.171875l0 1.078125zm14.63179 3.09375q-3.3125 -3.046875 -3.3125 -6.75q0 -0.859375 0.171875 -1.71875q0.1875 -0.875 0.578125 -1.734375q0.390625 -0.875 1.03125 -1.734375q0.640625 -0.859375 1.546875 -1.71875l0.734375 0.734375q-2.78125 2.75 -2.78125 6.078125q0 1.65625 0.703125 3.1875q0.703125 1.53125 2.078125 2.890625l-0.75 0.765625zm4.04245 -10.1875l1.140625 0l0.03125 1.328125q0.640625 -0.765625 1.25 -1.109375q0.625 -0.34375 1.25 -0.34375q1.125 0 1.703125 0.71875q0.578125 0.71875 0.53125 2.15625l-1.265625 0q0.03125 -0.953125 -0.265625 -1.375q-0.296875 -0.421875 -0.875 -0.421875q-0.25 0 -0.515625 0.09375q-0.25 0.078125 -0.515625 0.28125q-0.265625 0.1875 -0.5625 0.5q-0.296875 0.3125 -0.640625 0.75l0 4.609375l-1.265625 0l0 -7.1875zm13.839325 3.21875q0 0.265625 -0.015625 0.453125q0 0.171875 -0.015625 0.328125l-5.046875 0q0 1.09375 0.609375 1.6875q0.625 0.59375 1.78125 0.59375q0.3125 0 0.625 -0.015625q0.3125 -0.03125 0.609375 -0.078125q0.296875 -0.046875 0.5625 -0.09375q0.265625 -0.0625 0.5 -0.125l0 1.03125q-0.515625 0.140625 -1.15625 0.21875q-0.640625 0.09375 -1.328125 0.09375q-0.921875 0 -1.59375 -0.25q-0.65625 -0.25 -1.078125 -0.71875q-0.421875 -0.484375 -0.625 -1.171875q-0.203125 -0.6875 -0.203125 -1.5625q0 -0.765625 0.21875 -1.4375q0.21875 -0.671875 0.625 -1.1875q0.421875 -0.515625 1.03125 -0.8125q0.609375 -0.296875 1.375 -0.296875q0.765625 0 1.34375 0.234375q0.578125 0.234375 0.96875 0.671875q0.40625 0.4375 0.609375 1.0625q0.203125 0.609375 0.203125 1.375zm-1.296875 -0.1875q0.015625 -0.46875 -0.109375 -0.859375q-0.109375 -0.40625 -0.34375 -0.6875q-0.234375 -0.296875 -0.59375 -0.453125q-0.359375 -0.15625 -0.828125 -0.15625q-0.40625 0 -0.75 0.15625q-0.328125 0.15625 -0.578125 0.4375q-0.25 0.28125 -0.40625 0.6875q-0.140625 0.40625 -0.171875 0.875l3.78125 0zm2.91745 0.71875q0 -0.921875 0.25 -1.625q0.25 -0.71875 0.703125 -1.203125q0.46875 -0.5 1.109375 -0.75q0.65625 -0.25 1.453125 -0.25q0.34375 0 0.671875 0.046875q0.328125 0.03125 0.65625 0.125l0 -3.015625l1.25 0l0 10.109375l-1.109375 0l-0.046875 -1.359375q-0.515625 0.765625 -1.125 1.125q-0.609375 0.359375 -1.328125 0.359375q-0.609375 0 -1.078125 -0.25q-0.46875 -0.265625 -0.78125 -0.734375q-0.3125 -0.46875 -0.46875 -1.125q-0.15625 -0.65625 -0.15625 -1.453125zm1.265625 -0.078125q0 1.296875 0.375 1.9375q0.390625 0.640625 1.09375 0.640625q0.484375 0 1.0 -0.421875q0.53125 -0.421875 1.109375 -1.25l0 -3.34375q-0.3125 -0.140625 -0.6875 -0.203125q-0.359375 -0.078125 -0.734375 -0.078125q-1.015625 0 -1.59375 0.65625q-0.5625 0.65625 -0.5625 2.0625z" fill-rule="nonzero"/><path fill="#000000" d="m120.43363 33.352882q0 0.84375 -0.25 1.546875q-0.234375 0.6875 -0.671875 1.1875q-0.4375 0.5 -1.078125 0.78125q-0.640625 0.265625 -1.453125 0.265625q-0.765625 0 -1.390625 -0.234375q-0.609375 -0.234375 -1.03125 -0.703125q-0.421875 -0.46875 -0.65625 -1.15625q-0.21875 -0.6875 -0.21875 -1.578125q0 -0.84375 0.234375 -1.53125q0.234375 -0.6875 0.671875 -1.1875q0.453125 -0.5 1.09375 -0.765625q0.640625 -0.28125 1.4375 -0.28125q0.78125 0 1.390625 0.25q0.609375 0.234375 1.03125 0.703125q0.4375 0.453125 0.65625 1.140625q0.234375 0.6875 0.234375 1.5625zm-1.28125 0.0625q0 -0.671875 -0.15625 -1.15625q-0.140625 -0.5 -0.421875 -0.828125q-0.265625 -0.34375 -0.65625 -0.5q-0.375 -0.171875 -0.859375 -0.171875q-0.5625 0 -0.96875 0.21875q-0.390625 0.21875 -0.640625 0.578125q-0.25 0.359375 -0.375 0.84375q-0.109375 0.484375 -0.109375 1.015625q0 0.671875 0.140625 1.171875q0.140625 0.5 0.40625 0.828125q0.28125 0.328125 0.671875 0.5q0.390625 0.171875 0.875 0.171875q0.5625 0 0.953125 -0.21875q0.390625 -0.21875 0.640625 -0.578125q0.265625 -0.375 0.375 -0.859375q0.125 -0.484375 0.125 -1.015625zm3.370575 -3.59375l1.140625 0l0.03125 1.328125q0.640625 -0.765625 1.25 -1.109375q0.625 -0.34375 1.25 -0.34375q1.125 0 1.703125 0.71875q0.5781174 0.71875 0.5312424 2.15625l-1.2656174 0q0.03125 -0.953125 -0.265625 -1.375q-0.296875 -0.421875 -0.875 -0.421875q-0.25 0 -0.515625 0.09375q-0.25 0.078125 -0.515625 0.28125q-0.265625 0.1875 -0.5625 0.5q-0.296875 0.3125 -0.640625 0.75l0 4.609375l-1.265625 0l0 -7.1875zm21.959892 3.46875q0 0.890625 -0.25 1.59375q-0.234375 0.703125 -0.703125 1.203125q-0.453125 0.484375 -1.109375 0.75q-0.640625 0.25 -1.453125 0.25q-0.640625 0 -1.3125 -0.109375q-0.65625 -0.125 -1.3125 -0.390625l0 -9.6875l1.25 0l0 2.78125l-0.0625 1.328125q0.546875 -0.71875 1.15625 -1.015625q0.609375 -0.296875 1.3125 -0.296875q0.609375 0 1.078125 0.265625q0.46875 0.25 0.78125 0.71875q0.3125 0.46875 0.46875 1.140625q0.15625 0.65625 0.15625 1.46875zm-1.265625 0.046875q0 -0.5625 -0.09375 -1.03125q-0.078125 -0.46875 -0.265625 -0.796875q-0.171875 -0.34375 -0.453125 -0.53125q-0.265625 -0.1875 -0.65625 -0.1875q-0.234375 0 -0.484375 0.078125q-0.234375 0.0625 -0.5 0.25q-0.265625 0.171875 -0.5625 0.46875q-0.28125 0.28125 -0.609375 0.703125l0 3.484375q0.359375 0.140625 0.734375 0.234375q0.390625 0.078125 0.734375 0.078125q0.421875 0 0.8125 -0.125q0.390625 -0.140625 0.6875 -0.453125q0.296875 -0.328125 0.46875 -0.859375q0.1875 -0.53125 0.1875 -1.3125zm5.6362 -5.421875l-2.125 0l0 -1.015625l3.390625 0l0 9.078125l2.125 0l0 1.03125l-5.75 0l0 -1.03125l2.359375 0l0 -8.0625zm10.229965 9.09375l-0.03125 -0.96875q-0.59375 0.578125 -1.203125 0.84375q-0.59375 0.25 -1.265625 0.25q-0.60939026 0 -1.0468903 -0.15625q-0.4375 -0.15625 -0.71875 -0.421875q-0.28125 -0.28125 -0.421875 -0.65625q-0.125 -0.375 -0.125 -0.8125q0 -1.078125 0.796875 -1.6875q0.8125 -0.609375 2.3906403 -0.609375l1.484375 0l0 -0.640625q0 -0.625 -0.40625 -1.0q-0.40625 -0.390625 -1.25 -0.390625q-0.609375 0 -1.2031403 0.140625q-0.578125 0.125 -1.21875 0.375l0 -1.125q0.25 -0.078125 0.53125 -0.15625q0.296875 -0.09375 0.609375 -0.15625q0.328125 -0.0625 0.67189026 -0.09375q0.359375 -0.046875 0.71875 -0.046875q0.640625 0 1.15625 0.140625q0.53125 0.140625 0.890625 0.4375q0.359375 0.296875 0.546875 0.75q0.203125 0.4375 0.203125 1.03125l0 4.953125l-1.109375 0zm-0.140625 -3.265625l-1.578125 0q-0.46875 0 -0.8125 0.09375q-0.32814026 0.09375 -0.54689026 0.265625q-0.21875 0.171875 -0.328125 0.40625q-0.09375 0.234375 -0.09375 0.546875q0 0.203125 0.0625 0.390625q0.0625 0.1875 0.203125 0.34375q0.15625 0.140625 0.375 0.234375q0.23439026 0.078125 0.56251526 0.078125q0.4375 0 0.984375 -0.265625q0.5625 -0.265625 1.171875 -0.828125l0 -1.265625zm9.16745 3.0q-0.5 0.1875 -1.015625 0.265625q-0.5 0.09375 -1.046875 0.09375q-1.703125 0 -2.625 -0.921875q-0.921875 -0.921875 -0.921875 -2.6875q0 -0.859375 0.265625 -1.546875q0.265625 -0.703125 0.75 -1.1875q0.484375 -0.5 1.140625 -0.765625q0.671875 -0.265625 1.46875 -0.265625q0.5625 0 1.046875 0.078125q0.484375 0.078125 0.9375 0.25l0 1.1875q-0.46875 -0.234375 -0.953125 -0.34375q-0.484375 -0.109375 -1.0 -0.109375q-0.484375 0 -0.90625 0.1875q-0.421875 0.171875 -0.75 0.515625q-0.3125 0.34375 -0.5 0.84375q-0.1875 0.484375 -0.1875 1.109375q0 1.296875 0.625 1.953125q0.640625 0.640625 1.765625 0.640625q0.5 0 0.96875 -0.109375q0.484375 -0.109375 0.9375 -0.34375l0 1.15625zm8.933075 0.265625l-1.71875 0l-3.34375 -3.84375l0 3.84375l-1.25 0l0 -10.109375l1.25 0l0 6.203125l3.234375 -3.28125l1.640625 0l-3.375 3.3125l3.5625 3.875zm3.058075 -10.65625q3.296875 3.0625 3.296875 6.796875q0 0.78125 -0.15625 1.609375q-0.15625 0.828125 -0.53125 1.703125q-0.375 0.859375 -1.015625 1.75q-0.640625 0.90625 -1.625 1.796875l-0.71875 -0.734375q1.390625 -1.375 2.078125 -2.875q0.6875 -1.515625 0.6875 -3.15625q0 -3.40625 -2.765625 -6.125l0.75 -0.765625z" fill-rule="nonzero"/><path fill="#cfe2f3" d="m6.1706038 229.73753l46.23622 0l0 45.85826l-46.23622 0z" fill-rule="evenodd"/><path stroke="#000000" stroke-width="1.0" stroke-linejoin="round" stroke-linecap="butt" d="m6.1706038 229.73753l46.23622 0l0 45.85826l-46.23622 0z" fill-rule="evenodd"/><path fill="#000000" d="m31.488192 259.58667l-0.03125 -1.234375q-0.75 0.75 -1.515625 1.078125q-0.765625 0.3125 -1.625 0.3125q-0.78125 0 -1.34375 -0.1875q-0.546875 -0.203125 -0.90625 -0.546875q-0.359375 -0.359375 -0.53125 -0.828125q-0.15625 -0.484375 -0.15625 -1.03125q0 -1.375 1.015625 -2.15625q1.03125 -0.78125 3.03125 -0.78125l1.890625 0l0 -0.796875q0 -0.8125 -0.515625 -1.296875q-0.515625 -0.5 -1.578125 -0.5q-0.78125 0 -1.53125 0.1875q-0.75 0.171875 -1.546875 0.484375l0 -1.4375q0.296875 -0.109375 0.65625 -0.203125q0.375 -0.109375 0.78125 -0.1875q0.40625 -0.078125 0.859375 -0.125q0.453125 -0.0625 0.90625 -0.0625q0.828125 0 1.484375 0.1875q0.671875 0.171875 1.125 0.546875q0.4687519 0.375 0.7031269 0.953125q0.25 0.5625 0.25 1.328125l0 6.296875l-1.4218769 0zm-0.171875 -4.15625l-2.015625 0q-0.578125 0 -1.015625 0.125q-0.421875 0.109375 -0.703125 0.328125q-0.265625 0.21875 -0.40625 0.53125q-0.125 0.296875 -0.125 0.671875q0 0.265625 0.078125 0.515625q0.078125 0.234375 0.265625 0.421875q0.1875 0.1875 0.46875 0.296875q0.296875 0.109375 0.71875 0.109375q0.546875 0 1.25 -0.328125q0.703125 -0.34375 1.484375 -1.0625l0 -1.609375z" fill-rule="nonzero"/><path fill="#ff0000" d="m46.139107 182.86089l0 0c0 -12.663406 10.35033 -22.929123 23.11811 -22.929123l0 0c6.131302 0 12.01149 2.415741 16.34697 6.71579c4.3354874 4.3000336 6.771141 10.132156 6.771141 16.213333l0 0c0 12.663422 -10.350334 22.929138 -23.11811 22.929138l0 0c-12.76778 0 -23.11811 -10.265717 -23.11811 -22.929138z" fill-rule="evenodd"/><path stroke="#000000" stroke-width="1.0" stroke-linejoin="round" stroke-linecap="butt" d="m46.139107 182.86089l0 0c0 -12.663406 10.35033 -22.929123 23.11811 -22.929123l0 0c6.131302 0 12.01149 2.415741 16.34697 6.71579c4.3354874 4.3000336 6.771141 10.132156 6.771141 16.213333l0 0c0 12.663422 -10.350334 22.929138 -23.11811 22.929138l0 0c-12.76778 0 -23.11811 -10.265717 -23.11811 -22.929138z" fill-rule="evenodd"/><path fill="#ffffff" d="m64.85061 186.28088l1.71875 -0.140625q0.1875 1.25 0.875 1.890625q0.703125 0.625 1.6875 0.625q1.1875 0 2.0 -0.890625q0.828125 -0.890625 0.828125 -2.359375q0 -1.40625 -0.796875 -2.21875q-0.78125 -0.8125 -2.0625 -0.8125q-0.78125 0 -1.421875 0.359375q-0.640625 0.359375 -1.0 0.9375l-1.546875 -0.203125l1.296875 -6.859375l6.640625 0l0 1.5625l-5.328125 0l-0.71875 3.59375q1.203125 -0.84375 2.515625 -0.84375q1.75 0 2.953125 1.21875q1.203125 1.203125 1.203125 3.109375q0 1.8125 -1.046875 3.140625q-1.296875 1.625 -3.515625 1.625q-1.8125 0 -2.96875 -1.015625q-1.15625 -1.03125 -1.3125 -2.71875z" fill-rule="nonzero"/><path fill="#000000" fill-opacity="0.0" d="m149.28871 45.85827l0 32.06299" fill-rule="evenodd"/><path stroke="#000000" stroke-width="2.0" stroke-linejoin="round" stroke-linecap="butt" d="m149.28871 45.85827l0 32.06299" fill-rule="evenodd"/><path fill="#000000" fill-opacity="0.0" d="m69.25722 159.93176l80.031494 -36.157486" fill-rule="evenodd"/><path stroke="#000000" stroke-width="2.0" stroke-linejoin="round" stroke-linecap="butt" d="m69.25722 159.93176l80.031494 -36.157486" fill-rule="evenodd"/><path fill="#000000" fill-opacity="0.0" d="m69.25722 205.79002l-39.968506 23.937012" fill-rule="evenodd"/><path stroke="#000000" stroke-width="2.0" stroke-linejoin="round" stroke-linecap="butt" d="m69.25722 205.79002l-39.968506 23.937012" fill-rule="evenodd"/></g></svg>