<svg version="1.1" viewBox="0.0 0.0 239.5721784776903 334.38320209973756" fill="none" stroke="none" stroke-linecap="square" stroke-miterlimit="10" xmlns:xlink="http://www.w3.org/1999/xlink" xmlns="http://www.w3.org/2000/svg"><clipPath id="p.0"><path d="m0 0l239.57217 0l0 334.3832l-239.57217 0l0 -334.3832z" clip-rule="nonzero"/></clipPath><g clip-path="url(#p.0)"><path fill="#000000" fill-opacity="0.0" d="m0 0l239.57217 0l0 334.3832l-239.57217 0z" fill-rule="evenodd"/><path fill="#000000" d="m166.67455 301.98032l0 0c0 -12.663422 10.350327 -22.929138 23.118103 -22.929138l0 0c6.131302 0 12.01149 2.415741 16.34697 6.71579c4.335495 4.300049 6.7711487 10.132172 6.7711487 16.213348l0 0c0 12.663422 -10.350342 22.929138 -23.118118 22.929138l0 0c-12.7677765 0 -23.118103 -10.265717 -23.118103 -22.929138z" fill-rule="evenodd"/><path stroke="#000000" stroke-width="1.0" stroke-linejoin="round" stroke-linecap="butt" d="m166.67455 301.98032l0 0c0 -12.663422 10.350327 -22.929138 23.118103 -22.929138l0 0c6.131302 0 12.01149 2.415741 16.34697 6.71579c4.335495 4.300049 6.7711487 10.132172 6.7711487 16.213348l0 0c0 12.663422 -10.350342 22.929138 -23.118118 22.929138l0 0c-12.7677765 0 -23.118103 -10.265717 -23.118103 -22.929138z" fill-rule="evenodd"/><path fill="#ffffff" d="m187.90167 301.66592q-1.015625 -0.375 -1.515625 -1.0625q-0.484375 -0.703125 -0.484375 -1.671875q0 -1.453125 1.046875 -2.4375q1.046875 -1.0 2.78125 -1.0q1.75 0 2.8125 1.015625q1.078125 1.015625 1.078125 2.46875q0 0.9375 -0.5 1.625q-0.484375 0.6875 -1.46875 1.0625q1.21875 0.390625 1.859375 1.28125q0.65625 0.890625 0.65625 2.140625q0 1.703125 -1.21875 2.875q-1.21875 1.171875 -3.1875 1.171875q-1.984375 0 -3.203125 -1.171875q-1.203125 -1.171875 -1.203125 -2.921875q0 -1.3125 0.65625 -2.1875q0.671875 -0.875 1.890625 -1.1875zm-0.328125 -2.78125q0 0.9375 0.609375 1.546875q0.609375 0.59375 1.59375 0.59375q0.9375 0 1.546875 -0.59375q0.609375 -0.59375 0.609375 -1.453125q0 -0.90625 -0.625 -1.515625q-0.625 -0.625 -1.5625 -0.625q-0.9375 0 -1.5625 0.609375q-0.609375 0.59375 -0.609375 1.4375zm-0.53125 6.15625q0 0.703125 0.328125 1.359375q0.34375 0.65625 1.0 1.015625q0.65625 0.359375 1.40625 0.359375q1.171875 0 1.9375 -0.75q0.765625 -0.75 0.765625 -1.921875q0 -1.1875 -0.796875 -1.953125q-0.78125 -0.78125 -1.953125 -0.78125q-1.15625 0 -1.921875 0.765625q-0.765625 0.765625 -0.765625 1.90625z" fill-rule="nonzero"/><path fill="#000000" d="m83.456696 162.38977l0 0c0 -12.663422 10.350327 -22.929138 23.11811 -22.929138l0 0c6.131302 0 12.011482 2.415741 16.34697 6.71579c4.3354874 4.300049 6.771141 10.132156 6.771141 16.213348l0 0c0 12.663406 -10.350334 22.929123 -23.11811 22.929123l0 0c-12.767784 0 -23.11811 -10.265717 -23.11811 -22.929123z" fill-rule="evenodd"/><path stroke="#000000" stroke-width="1.0" stroke-linejoin="round" stroke-linecap="butt" d="m83.456696 162.38977l0 0c0 -12.663422 10.350327 -22.929138 23.11811 -22.929138l0 0c6.131302 0 12.011482 2.415741 16.34697 6.71579c4.3354874 4.300049 6.771141 10.132156 6.771141 16.213348l0 0c0 12.663406 -10.350334 22.929123 -23.11811 22.929123l0 0c-12.767784 0 -23.11811 -10.265717 -23.11811 -22.929123z" fill-rule="evenodd"/><path fill="#ffffff" d="m102.1682 165.77852l1.640625 -0.21875q0.28125 1.40625 0.953125 2.015625q0.6875 0.609375 1.65625 0.609375q1.15625 0 1.953125 -0.796875q0.796875 -0.796875 0.796875 -1.984375q0 -1.125 -0.734375 -1.859375q-0.734375 -0.734375 -1.875 -0.734375q-0.46875 0 -1.15625 0.171875l0.1875 -1.4375q0.15625 0.015625 0.265625 0.015625q1.046875 0 1.875 -0.546875q0.84375 -0.546875 0.84375 -1.671875q0 -0.90625 -0.609375 -1.5q-0.609375 -0.59375 -1.578125 -0.59375q-0.953125 0 -1.59375 0.609375q-0.640625 0.59375 -0.8125 1.796875l-1.640625 -0.296875q0.296875 -1.640625 1.359375 -2.546875q1.0625 -0.90625 2.65625 -0.90625q1.09375 0 2.0 0.46875q0.921875 0.46875 1.40625 1.28125q0.5 0.8125 0.5 1.71875q0 0.859375 -0.46875 1.578125q-0.46875 0.703125 -1.375 1.125q1.1875 0.28125 1.84375 1.140625q0.65625 0.859375 0.65625 2.15625q0 1.734375 -1.28125 2.953125q-1.265625 1.21875 -3.21875 1.21875q-1.765625 0 -2.921875 -1.046875q-1.15625 -1.046875 -1.328125 -2.71875z" fill-rule="nonzero"/><path fill="#000000" fill-opacity="0.0" d="m106.57481 185.3189l-40.0315 23.937012" fill-rule="evenodd"/><path stroke="#000000" stroke-width="2.0" stroke-linejoin="round" stroke-linecap="butt" d="m106.57481 185.3189l-40.0315 23.937012" fill-rule="evenodd"/><path fill="#000000" fill-opacity="0.0" d="m106.57481 185.3189l39.9685 23.937012" fill-rule="evenodd"/><path stroke="#000000" stroke-width="2.0" stroke-linejoin="round" stroke-linecap="butt" d="m106.57481 185.3189l39.9685 23.937012" fill-rule="evenodd"/><path fill="#000000" d="m44.31496 232.18504l0 0c0 -12.663422 10.35033 -22.929138 23.118107 -22.929138l0 0c6.1313095 0 12.01149 2.415741 16.346977 6.71579c4.3354874 4.300049 6.7711334 10.132156 6.7711334 16.213348l0 0c0 12.663406 -10.350327 22.929123 -23.11811 22.929123l0 0c-12.7677765 0 -23.118107 -10.265717 -23.118107 -22.929123z" fill-rule="evenodd"/><path stroke="#000000" stroke-width="1.0" stroke-linejoin="round" stroke-linecap="butt" d="m44.31496 232.18504l0 0c0 -12.663422 10.35033 -22.929138 23.118107 -22.929138l0 0c6.1313095 0 12.01149 2.415741 16.346977 6.71579c4.3354874 4.300049 6.7711334 10.132156 6.7711334 16.213348l0 0c0 12.663406 -10.350327 22.929123 -23.11811 22.929123l0 0c-12.7677765 0 -23.118107 -10.265717 -23.118107 -22.929123z" fill-rule="evenodd"/><path fill="#ffffff" d="m71.63584 237.52692l0 1.578125l-8.828129 0q-0.015625 -0.59375 0.1875 -1.140625q0.34375 -0.90625 1.0781212 -1.78125q0.75 -0.875 2.15625 -2.015625q2.1718826 -1.78125 2.9375076 -2.828125q0.765625 -1.046875 0.765625 -1.96875q0 -0.984375 -0.703125 -1.640625q-0.6875 -0.671875 -1.8125 -0.671875q-1.1875076 0 -1.9062576 0.71875q-0.703125 0.703125 -0.703125 1.953125l-1.6874962 -0.171875q0.171875 -1.890625 1.2968712 -2.875q1.140625 -0.984375 3.0312576 -0.984375q1.921875 0 3.046875 1.0625q1.125 1.0625 1.125 2.640625q0 0.796875 -0.328125 1.578125q-0.328125 0.78125 -1.09375 1.640625q-0.75 0.84375 -2.53125 2.34375q-1.4687576 1.234375 -1.8906326 1.6875q-0.421875 0.4375 -0.6875 0.875l6.5468826 0z" fill-rule="nonzero"/><path fill="#000000" d="m128.36482 232.18504l0 0c0 -12.663422 10.350342 -22.929138 23.118118 -22.929138l0 0c6.131302 0 12.01149 2.415741 16.34697 6.71579c4.335495 4.300049 6.7711334 10.132156 6.7711334 16.213348l0 0c0 12.663406 -10.350327 22.929123 -23.118103 22.929123l0 0c-12.7677765 0 -23.118118 -10.265717 -23.118118 -22.929123z" fill-rule="evenodd"/><path stroke="#000000" stroke-width="1.0" stroke-linejoin="round" stroke-linecap="butt" d="m128.36482 232.18504l0 0c0 -12.663422 10.350342 -22.929138 23.118118 -22.929138l0 0c6.131302 0 12.01149 2.415741 16.34697 6.71579c4.335495 4.300049 6.7711334 10.132156 6.7711334 16.213348l0 0c0 12.663406 -10.350327 22.929123 -23.118103 22.929123l0 0c-12.7677765 0 -23.118118 -10.265717 -23.118118 -22.929123z" fill-rule="evenodd"/><path fill="#ffffff" d="m155.57632 229.02692l-1.625 0.125q-0.21875 -0.96875 -0.625 -1.40625q-0.65625 -0.703125 -1.640625 -0.703125q-0.78125 0 -1.375 0.4375q-0.765625 0.5625 -1.21875 1.65625q-0.453125 1.078125 -0.46875 3.078125q0.59375 -0.890625 1.453125 -1.328125q0.859375 -0.4375 1.796875 -0.4375q1.640625 0 2.78125 1.203125q1.15625 1.203125 1.15625 3.109375q0 1.265625 -0.546875 2.34375q-0.53125 1.078125 -1.484375 1.65625q-0.9375 0.578125 -2.140625 0.578125q-2.0625 0 -3.359375 -1.5q-1.28125 -1.515625 -1.28125 -4.984375q0 -3.875 1.421875 -5.625q1.25 -1.53125 3.375 -1.53125q1.5625 0 2.5625 0.890625q1.015625 0.875 1.21875 2.4375zm-6.6875 5.75q0 0.84375 0.359375 1.625q0.359375 0.765625 1.0 1.171875q0.640625 0.40625 1.359375 0.40625q1.03125 0 1.78125 -0.828125q0.75 -0.84375 0.75 -2.28125q0 -1.390625 -0.734375 -2.1875q-0.734375 -0.796875 -1.859375 -0.796875q-1.109375 0 -1.890625 0.796875q-0.765625 0.796875 -0.765625 2.09375z" fill-rule="nonzero"/><path fill="#000000" fill-opacity="0.0" d="m151.48294 255.11417l-40.031494 23.937012" fill-rule="evenodd"/><path stroke="#000000" stroke-width="2.0" stroke-linejoin="round" stroke-linecap="butt" d="m151.48294 255.11417l-40.031494 23.937012" fill-rule="evenodd"/><path fill="#000000" fill-opacity="0.0" d="m151.48294 255.11417l39.968506 23.937012" fill-rule="evenodd"/><path stroke="#000000" stroke-width="2.0" stroke-linejoin="round" stroke-linecap="butt" d="m151.48294 255.11417l39.968506 23.937012" fill-rule="evenodd"/><path fill="#000000" d="m90.55118 301.98032l0 0c0 -12.663422 10.350334 -22.929138 23.11811 -22.929138l0 0c6.1313095 0 12.01149 2.415741 16.346977 6.71579c4.3354797 4.300049 6.7711334 10.132172 6.7711334 16.213348l0 0c0 12.663422 -10.350327 22.929138 -23.11811 22.929138l0 0c-12.7677765 0 -23.11811 -10.265717 -23.11811 -22.929138z" fill-rule="evenodd"/><path stroke="#000000" stroke-width="1.0" stroke-linejoin="round" stroke-linecap="butt" d="m90.55118 301.98032l0 0c0 -12.663422 10.350334 -22.929138 23.11811 -22.929138l0 0c6.1313095 0 12.01149 2.415741 16.346977 6.71579c4.3354797 4.300049 6.7711334 10.132172 6.7711334 16.213348l0 0c0 12.663422 -10.350327 22.929138 -23.11811 22.929138l0 0c-12.7677765 0 -23.11811 -10.265717 -23.11811 -22.929138z" fill-rule="evenodd"/><path fill="#ffffff" d="m114.51268 308.9003l0 -3.203125l-5.796875 0l0 -1.5l6.09375 -8.65625l1.34375 0l0 8.65625l1.796875 0l0 1.5l-1.796875 0l0 3.203125l-1.640625 0zm0 -4.703125l0 -6.015625l-4.1875 6.015625l4.1875 0z" fill-rule="nonzero"/><path fill="#000000" d="m44.34646 95.03281l0 0c0 -12.663406 10.35033 -22.92913 23.11811 -22.92913l0 0c6.131302 0 12.011482 2.415741 16.34697 6.71579c4.3354874 4.300041 6.771141 10.132156 6.771141 16.21334l0 0c0 12.663414 -10.350334 22.929138 -23.11811 22.929138l0 0c-12.76778 0 -23.11811 -10.265724 -23.11811 -22.929138z" fill-rule="evenodd"/><path stroke="#000000" stroke-width="1.0" stroke-linejoin="round" stroke-linecap="butt" d="m44.34646 95.03281l0 0c0 -12.663406 10.35033 -22.92913 23.11811 -22.92913l0 0c6.131302 0 12.011482 2.415741 16.34697 6.71579c4.3354874 4.300041 6.771141 10.132156 6.771141 16.21334l0 0c0 12.663414 -10.350334 22.929138 -23.11811 22.929138l0 0c-12.76778 0 -23.11811 -10.265724 -23.11811 -22.929138z" fill-rule="evenodd"/><path fill="#ffffff" d="m69.229836 101.952805l-1.640625 0l0 -10.453125q-0.59375 0.5625 -1.5625 1.140625q-0.953125 0.5625 -1.71875 0.84375l0 -1.59375q1.375 -0.640625 2.40625 -1.5625q1.03125 -0.921875 1.453125 -1.78125l1.0625 0l0 13.40625z" fill-rule="nonzero"/><path fill="#000000" fill-opacity="0.0" d="m67.46457 117.961945l39.9685 23.937012" fill-rule="evenodd"/><path stroke="#000000" stroke-width="2.0" stroke-linejoin="round" stroke-linecap="butt" d="m67.46457 117.961945l39.9685 23.937012" fill-rule="evenodd"/><path fill="#000000" d="m3.456693 25.237534l0 0c0 -12.663412 10.35033 -22.929134 23.118109 -22.929134l0 0c6.1313057 0 12.011486 2.4157412 16.346973 6.715788c4.3354874 4.300046 6.771137 10.132162 6.771137 16.213346l0 0c0 12.66341 -10.35033 22.929134 -23.11811 22.929134l0 0c-12.767779 0 -23.118109 -10.265724 -23.118109 -22.929134z" fill-rule="evenodd"/><path stroke="#000000" stroke-width="1.0" stroke-linejoin="round" stroke-linecap="butt" d="m3.456693 25.237534l0 0c0 -12.663412 10.35033 -22.929134 23.118109 -22.929134l0 0c6.1313057 0 12.011486 2.4157412 16.346973 6.715788c4.3354874 4.300046 6.771137 10.132162 6.771137 16.213346l0 0c0 12.66341 -10.35033 22.929134 -23.11811 22.929134l0 0c-12.767779 0 -23.118109 -10.265724 -23.118109 -22.929134z" fill-rule="evenodd"/><path fill="#ffffff" d="m22.168194 25.563782q0 -2.359375 0.484375 -3.796875q0.484375 -1.453125 1.4375 -2.234375q0.96875 -0.78125 2.421877 -0.78125q1.078125 0 1.890625 0.4375q0.8125 0.421875 1.328125 1.25q0.53125 0.8125 0.828125 1.984375q0.3125 1.15625 0.3125 3.140625q0 2.359375 -0.484375 3.8125q-0.484375 1.4375 -1.453125 2.234375q-0.953125 0.78125 -2.421875 0.78125q-1.9218769 0 -3.031252 -1.390625q-1.3125 -1.671875 -1.3125 -5.4375zm1.671875 0q0 3.296875 0.765625 4.390625q0.78125 1.078125 1.9062519 1.078125q1.140625 0 1.90625 -1.09375q0.765625 -1.09375 0.765625 -4.375q0 -3.296875 -0.765625 -4.375q-0.765625 -1.078125 -1.921875 -1.078125q-1.1250019 0 -1.7968769 0.953125q-0.859375 1.21875 -0.859375 4.5z" fill-rule="nonzero"/><path fill="#000000" fill-opacity="0.0" d="m26.574802 48.166668l39.968502 23.937008" fill-rule="evenodd"/><path stroke="#000000" stroke-width="2.0" stroke-linejoin="round" stroke-linecap="butt" d="m26.574802 48.166668l39.968502 23.937008" fill-rule="evenodd"/></g></svg>